<svg width="1204" height="247" viewBox="0 0 1204 247" fill="none" xmlns="http://www.w3.org/2000/svg">
<path fill-rule="evenodd" clip-rule="evenodd" d="M0 148.558V98.442H31.4771V173.616H62.9542V50.1159H91.8083V173.616H123.285V221.942H154.763V173.616H186.24H215.094V98.442H246.571V196.884H278.048V0H309.525H338.379V221.942H369.856V148.558H401.333V221.942H432.81V247H464.288V73.3841H493.142V50.1159H524.619V247H556.096V50.1159H587.573H616.427V123.5H647.904V148.558H679.381V196.884H710.858V123.5H739.712V221.942H771.19V148.558H802.667V123.5H834.144V221.942H865.621V98.442H894.475V25.058H925.952V196.884H957.429V123.5H988.906V247H1017.76V196.884H1049.24V247H1080.71V148.558H1112.19V25.058H1141.05V196.884H1172.52V25.058H1204V247H1172.52H1141.05H1112.19H1080.71H1049.24H1017.76H988.906H957.429H925.952H894.475H865.621H834.144H802.667H771.19H739.712H710.858H679.381H647.904H616.427H587.573H556.096H524.619H493.142H464.288H432.81H401.333H369.856H338.379H309.525H278.048H246.571H215.094H186.24H154.763H123.285H91.8083H62.9542H31.4771H0V148.558Z" fill="#0C0094" fill-opacity="0.05"/>
</svg>
