<svg width="425" height="318" viewBox="0 0 425 318" fill="none" xmlns="http://www.w3.org/2000/svg">
<path d="M242.676 41.2253H215.804V46.0538H242.676V41.2253Z" fill="#1258EB"/>
<path d="M233.46 48.2017H215.804V53.0301H233.46V48.2017Z" fill="#1258EB"/>
<path d="M225.97 55.1777H215.804V60.0062H225.97V55.1777Z" fill="#1258EB"/>
<g opacity="0.2">
<path d="M242.676 41.2253H215.804V46.0538H242.676V41.2253Z" fill="black"/>
<path d="M233.46 48.2014H215.804V53.0299H233.46V48.2014Z" fill="black"/>
<path d="M225.97 55.1779H215.804V60.0063H225.97V55.1779Z" fill="black"/>
</g>
<path d="M169.141 94.6944V109.232H178.253V94.6944H169.141Z" fill="#1258EB"/>
<path d="M182.306 99.6858V109.232H191.419V99.6858H182.306Z" fill="#1258EB"/>
<path d="M195.463 103.729V109.224H204.575V103.729H195.463Z" fill="#1258EB"/>
<g opacity="0.2">
<path d="M169.141 94.6943V109.232H178.253V94.6943H169.141Z" fill="black"/>
<path d="M182.306 99.6858V109.232H191.419V99.6858H182.306Z" fill="black"/>
<path d="M195.462 103.729V109.224H204.575V103.729H195.462Z" fill="black"/>
</g>
<path d="M167.1 119.836H277.446C278.891 119.838 280.322 119.618 281.658 119.188C282.994 118.758 284.208 118.126 285.231 117.33C286.253 116.533 287.065 115.587 287.618 114.546C288.172 113.504 288.457 112.388 288.457 111.261V40.3145C288.457 39.1871 288.172 38.0707 287.618 37.0293C287.065 35.9879 286.253 35.0418 285.231 34.2453C284.208 33.4488 282.994 32.8174 281.658 32.3873C280.322 31.9572 278.891 31.7368 277.446 31.7388H167.1C165.655 31.7378 164.224 31.9589 162.889 32.3893C161.554 32.8197 160.341 33.4512 159.318 34.2475C158.296 35.0438 157.484 35.9895 156.93 37.0305C156.376 38.0714 156.09 39.1874 156.089 40.3145V111.261C156.09 112.388 156.376 113.504 156.93 114.545C157.484 115.586 158.296 116.531 159.318 117.328C160.341 118.124 161.554 118.755 162.889 119.186C164.224 119.616 165.655 119.837 167.1 119.836V119.836Z" stroke="#263238" stroke-width="1.0631" stroke-miterlimit="10"/>
<path d="M236.677 95.4792H276.022" stroke="#263238" stroke-width="1.0631" stroke-miterlimit="10"/>
<path d="M236.677 98.7598H276.022" stroke="#263238" stroke-width="1.0631" stroke-miterlimit="10"/>
<path d="M236.677 102.041H276.022" stroke="#263238" stroke-width="1.0631" stroke-miterlimit="10"/>
<path d="M236.677 105.329H276.022" stroke="#263238" stroke-width="1.0631" stroke-miterlimit="10"/>
<path d="M236.677 108.609H276.022" stroke="#263238" stroke-width="1.0631" stroke-miterlimit="10"/>
<path d="M167.935 41.9441H207.28" stroke="#263238" stroke-width="1.0631" stroke-miterlimit="10"/>
<path d="M167.935 45.2244H207.28" stroke="#263238" stroke-width="1.0631" stroke-miterlimit="10"/>
<path d="M167.935 48.5051H207.28" stroke="#263238" stroke-width="1.0631" stroke-miterlimit="10"/>
<path d="M167.935 51.7856H207.28" stroke="#263238" stroke-width="1.0631" stroke-miterlimit="10"/>
<path d="M167.935 55.074H207.28" stroke="#263238" stroke-width="1.0631" stroke-miterlimit="10"/>
<path d="M271.095 67.745L278.594 70.8184L277.749 54.3186L259.828 63.1387L267.327 66.2047L261.689 74.5805C260.692 74.5836 259.724 74.8439 258.936 75.321L249.007 71.7219C249.007 70.7752 248.525 69.8673 247.667 69.1978C246.809 68.5284 245.645 68.1524 244.432 68.1524C243.219 68.1524 242.055 68.5284 241.197 69.1978C240.339 69.8673 239.857 70.7752 239.857 71.7219C239.856 72.2334 239.999 72.7389 240.274 73.203L227.261 84.2078C226.846 84.104 226.415 84.0491 225.979 84.0449C225.76 84.0508 225.541 84.0681 225.324 84.0967L206.615 65.6492C206.884 65.184 207.021 64.6785 207.014 64.1681C207.014 63.2214 206.532 62.3135 205.674 61.6441C204.816 60.9747 203.652 60.5986 202.439 60.5986C201.225 60.5986 200.062 60.9747 199.204 61.6441C198.346 62.3135 197.864 63.2214 197.864 64.1681C197.874 64.5357 197.954 64.9001 198.101 65.2493L176.734 82.2231C176.232 82.0798 175.703 82.0046 175.168 82.0009C174.265 82.0024 173.384 82.2125 172.634 82.6048C171.884 82.9971 171.301 83.554 170.957 84.205C170.613 84.856 170.523 85.572 170.701 86.2625C170.878 86.953 171.314 87.587 171.952 88.0844C172.591 88.5819 173.405 88.9204 174.29 89.0572C175.176 89.1941 176.093 89.1231 176.927 88.8533C177.761 88.5835 178.473 88.1269 178.974 87.5413C179.476 86.9556 179.743 86.2672 179.743 85.563C179.741 85.2678 179.69 84.9741 179.591 84.6892L201.138 67.5229C201.56 67.6261 201.998 67.681 202.439 67.6858C202.719 67.6853 202.999 67.6655 203.274 67.6266L221.888 86.037C221.552 86.5624 221.386 87.1445 221.407 87.7316C221.428 88.3188 221.634 88.8929 222.007 89.403C222.38 89.9131 222.909 90.3435 223.547 90.6559C224.184 90.9684 224.911 91.1533 225.662 91.1942C226.413 91.2351 227.165 91.1308 227.852 90.8905C228.539 90.6502 229.14 90.2813 229.6 89.8166C230.061 89.3519 230.367 88.8057 230.492 88.2265C230.617 87.6473 230.557 87.0529 230.317 86.4961L243.663 75.2173C243.917 75.2525 244.174 75.2723 244.432 75.2766C245.339 75.2775 246.225 75.0659 246.976 74.6693L257.132 78.3721C257.171 78.9215 257.373 79.4564 257.721 79.9349C258.07 80.4133 258.556 80.8223 259.141 81.1297C259.725 81.4371 260.394 81.6345 261.093 81.7066C261.792 81.7788 262.503 81.7235 263.17 81.5452C263.838 81.367 264.443 81.0705 264.939 80.6791C265.434 80.2877 265.807 79.8121 266.028 79.2894C266.248 78.7668 266.311 78.2114 266.21 77.6668C266.11 77.1222 265.848 76.6032 265.448 76.1504L271.095 67.745Z" fill="#FF0000"/>
<path d="M130.869 83.9559L118.035 68.3078L96.8298 80.4753L77.276 50.2825L25.6769 75.8764V96.5529H142.031V79.1719L130.869 83.9559Z" fill="#263238" stroke="#263238" stroke-width="1.16063" stroke-linecap="round" stroke-linejoin="round"/>
<path d="M133.099 95.6867L119.155 79.1721L95.7192 86.563L68.3724 66.1382L25.6769 79.5868V109.595H142.031V90.9027L133.099 95.6867Z" fill="#0E46BC" stroke="#263238" stroke-width="0.876601" stroke-miterlimit="10"/>
<path d="M133.099 95.6867L119.155 79.1721L95.7192 86.563L68.3724 66.1382L25.6769 79.5868V109.595H142.031V90.9027L133.099 95.6867Z" stroke="#263238" stroke-width="0.876601" stroke-miterlimit="10"/>
<path d="M91.7895 42.6251H82.4208C81.8479 42.6217 81.2905 42.7699 80.8394 43.0455C80.3883 43.3211 80.0703 43.7077 79.937 44.1424C79.8038 44.5771 79.8633 45.0343 80.1057 45.4392C80.3482 45.8442 80.7594 46.1731 81.2722 46.3723L77.9974 49.0902L83.968 46.5945H91.7895C92.4642 46.5945 93.1112 46.3854 93.5883 46.0132C94.0654 45.641 94.3334 45.1361 94.3334 44.6098C94.3334 44.0834 94.0654 43.5786 93.5883 43.2064C93.1112 42.8342 92.4642 42.6251 91.7895 42.6251Z" fill="#FF0000"/>
<path d="M132.824 60.295H123.455C122.882 60.2917 122.325 60.4399 121.874 60.7154C121.423 60.991 121.105 61.3777 120.971 61.8124C120.838 62.2471 120.898 62.7042 121.14 63.1091C121.383 63.5141 121.794 63.843 122.307 64.0422L119.032 66.7823L125.002 64.2792H132.824C133.499 64.2792 134.146 64.0701 134.623 63.6979C135.1 63.3257 135.368 62.8209 135.368 62.2945C135.368 61.7681 135.1 61.2633 134.623 60.8911C134.146 60.5189 133.499 60.3098 132.824 60.3098V60.295Z" fill="#FF0000"/>
<path d="M30.3755 119.836H140.721C142.166 119.838 143.598 119.618 144.934 119.188C146.269 118.758 147.483 118.126 148.506 117.33C149.529 116.533 150.34 115.587 150.894 114.546C151.447 113.504 151.732 112.388 151.732 111.261V40.3145C151.732 39.1871 151.447 38.0707 150.894 37.0293C150.34 35.9879 149.529 35.0418 148.506 34.2453C147.483 33.4488 146.269 32.8174 144.934 32.3873C143.598 31.9572 142.166 31.7368 140.721 31.7388H30.3755C28.9305 31.7368 27.4991 31.9572 26.1633 32.3873C24.8275 32.8174 23.6135 33.4488 22.5908 34.2453C21.5681 35.0418 20.7568 35.9879 20.2032 37.0293C19.6496 38.0707 19.3647 39.1871 19.3647 40.3145V111.261C19.3647 112.388 19.6496 113.504 20.2032 114.546C20.7568 115.587 21.5681 116.533 22.5908 117.33C23.6135 118.126 24.8275 118.758 26.1633 119.188C27.4991 119.618 28.9305 119.838 30.3755 119.836V119.836Z" stroke="#263238" stroke-width="1.0631" stroke-miterlimit="10"/>
<path d="M27.7463 41.3142H35.3495" stroke="#263238" stroke-width="1.0631" stroke-miterlimit="10"/>
<path d="M27.7463 47.772H35.3495" stroke="#263238" stroke-width="1.0631" stroke-miterlimit="10"/>
<path d="M27.7463 54.2297H35.3495" stroke="#263238" stroke-width="1.0631" stroke-miterlimit="10"/>
<path d="M27.7463 60.6875H35.3495" stroke="#263238" stroke-width="1.0631" stroke-miterlimit="10"/>
<path d="M27.7463 67.145H35.3495" stroke="#263238" stroke-width="1.0631" stroke-miterlimit="10"/>
<path d="M326.359 50.0676C321.415 50.0735 316.585 51.2225 312.479 53.3694C308.372 55.5164 305.173 58.5649 303.287 62.1298C301.4 65.6947 300.91 69.6158 301.879 73.3977C302.848 77.1797 305.233 80.6526 308.731 83.3777C312.229 86.1028 316.684 87.9576 321.533 88.7079C326.382 89.4582 331.407 89.0701 335.973 87.5929C340.54 86.1156 344.442 83.6154 347.188 80.4082C349.933 77.2011 351.399 73.4309 351.399 69.5741C351.389 64.3979 348.746 59.4365 344.051 55.7791C339.357 52.1218 332.993 50.0676 326.359 50.0676ZM326.359 83.3486C322.867 83.3384 319.458 82.5212 316.562 81.0003C313.665 79.4793 311.412 77.3229 310.085 74.8033C308.759 72.2836 308.419 69.5138 309.109 66.8436C309.798 64.1734 311.487 61.7226 313.961 59.8006C316.435 57.8787 319.584 56.5718 323.009 56.045C326.435 55.5183 329.983 55.7953 333.207 56.841C336.431 57.8868 339.185 59.6544 341.122 61.9207C343.059 64.1869 344.092 66.8502 344.09 69.5741C344.085 71.3869 343.622 73.1812 342.729 74.8545C341.835 76.5278 340.527 78.0473 338.881 79.3264C337.234 80.6055 335.281 81.619 333.133 82.3092C330.984 82.9993 328.682 83.3525 326.359 83.3486Z" fill="#1258EB" stroke="#263238" stroke-width="1.0631" stroke-miterlimit="10"/>
<g opacity="0.2">
<path d="M326.359 50.0676C321.415 50.0735 316.585 51.2225 312.479 53.3694C308.372 55.5164 305.173 58.5649 303.287 62.1298C301.4 65.6947 300.91 69.6158 301.879 73.3977C302.848 77.1797 305.233 80.6526 308.731 83.3777C312.229 86.1028 316.684 87.9576 321.533 88.7079C326.382 89.4582 331.407 89.0701 335.973 87.5929C340.54 86.1156 344.442 83.6154 347.188 80.4082C349.933 77.2011 351.399 73.4309 351.399 69.5741C351.389 64.3979 348.746 59.4365 344.051 55.7791C339.357 52.1218 332.993 50.0676 326.359 50.0676ZM326.359 83.3486C322.867 83.3384 319.458 82.5212 316.562 81.0003C313.665 79.4793 311.412 77.3229 310.085 74.8033C308.759 72.2836 308.419 69.5138 309.109 66.8436C309.798 64.1734 311.487 61.7226 313.961 59.8006C316.435 57.8787 319.584 56.5718 323.009 56.045C326.435 55.5183 329.983 55.7953 333.207 56.841C336.431 57.8868 339.185 59.6544 341.122 61.9207C343.059 64.1869 344.092 66.8502 344.09 69.5741C344.085 71.3869 343.622 73.1812 342.729 74.8545C341.835 76.5278 340.527 78.0473 338.881 79.3264C337.234 80.6055 335.281 81.619 333.133 82.3092C330.984 82.9993 328.682 83.3525 326.359 83.3486Z" fill="black"/>
</g>
<path d="M326.359 50.0676C321.415 50.0735 316.585 51.2225 312.479 53.3694C308.372 55.5164 305.173 58.5649 303.287 62.1298C301.4 65.6947 300.91 69.6158 301.879 73.3977C302.848 77.1797 305.233 80.6526 308.731 83.3777C312.229 86.1028 316.684 87.9576 321.533 88.7079C326.382 89.4582 331.407 89.0701 335.973 87.5929C340.54 86.1156 344.442 83.6154 347.188 80.4082C349.933 77.2011 351.399 73.4309 351.399 69.5741C351.389 64.3979 348.746 59.4365 344.051 55.7791C339.357 52.1218 332.993 50.0676 326.359 50.0676V50.0676ZM326.359 83.3486C322.867 83.3384 319.458 82.5212 316.562 81.0003C313.665 79.4793 311.412 77.3229 310.085 74.8033C308.759 72.2836 308.419 69.5138 309.109 66.8436C309.798 64.1734 311.487 61.7226 313.961 59.8006C316.435 57.8787 319.584 56.5718 323.009 56.045C326.435 55.5183 329.983 55.7953 333.207 56.841C336.431 57.8868 339.185 59.6544 341.122 61.9207C343.059 64.1869 344.092 66.8502 344.09 69.5741C344.085 71.3869 343.622 73.1812 342.729 74.8545C341.835 76.5278 340.527 78.0473 338.881 79.3264C337.234 80.6055 335.281 81.619 333.133 82.3092C330.984 82.9993 328.682 83.3525 326.359 83.3486V83.3486Z" stroke="#263238" stroke-width="1.0631" stroke-miterlimit="10"/>
<path d="M326.359 50.0677C322.98 50.057 319.633 50.5841 316.524 51.6168C313.415 52.6494 310.608 54.166 308.276 56.0736L313.582 60.0357C315.602 58.3859 318.114 57.1528 320.895 56.4469C323.675 55.7409 326.637 55.5842 329.514 55.9908C332.391 56.3973 335.094 57.3544 337.38 58.7764C339.667 60.1983 341.466 62.0406 342.615 64.1382C343.765 66.2357 344.229 68.523 343.967 70.7951C343.705 73.0672 342.725 75.2531 341.114 77.1568C339.503 79.0606 337.311 80.6228 334.736 81.7034C332.161 82.784 329.283 83.3493 326.359 83.3486V89.0732C329.682 89.1237 332.986 88.6566 336.075 87.6992C339.165 86.7418 341.978 85.3133 344.352 83.4973C346.725 81.6813 348.611 79.5143 349.898 77.1229C351.185 74.7316 351.848 72.1641 351.848 69.5704C351.848 66.9768 351.185 64.4093 349.898 62.0179C348.611 59.6266 346.725 57.4596 344.352 55.6436C341.978 53.8275 339.165 52.3991 336.075 51.4416C332.986 50.4842 329.682 50.0171 326.359 50.0677Z" fill="white" stroke="#263238" stroke-width="1.0631" stroke-linecap="round" stroke-linejoin="round"/>
<path d="M388.114 50.0676C383.171 50.0735 378.341 51.2225 374.234 53.3694C370.128 55.5164 366.929 58.5649 365.042 62.1298C363.156 65.6947 362.666 69.6158 363.635 73.3977C364.604 77.1797 366.988 80.6526 370.487 83.3777C373.985 86.1028 378.44 87.9576 383.289 88.7079C388.138 89.4582 393.163 89.0701 397.729 87.5929C402.295 86.1156 406.198 83.6154 408.944 80.4082C411.689 77.2011 413.155 73.4309 413.155 69.5741C413.145 64.3979 410.502 59.4365 405.807 55.7791C401.112 52.1218 394.749 50.0676 388.114 50.0676ZM388.114 83.3486C384.621 83.3471 381.206 82.5374 378.302 81.0218C375.398 79.5062 373.135 77.3528 371.8 74.834C370.465 72.3151 370.117 69.5439 370.8 66.8707C371.484 64.1976 373.168 61.7426 375.64 59.8162C378.112 57.8898 381.26 56.5785 384.687 56.0482C388.114 55.5178 391.666 55.7922 394.893 56.8367C398.12 57.8812 400.877 59.6488 402.817 61.916C404.756 64.1833 405.791 66.8483 405.789 69.5741C405.776 73.2269 403.909 76.727 400.597 79.3086C397.285 81.8901 392.796 83.3427 388.114 83.3486Z" fill="#1258EB" stroke="#263238" stroke-width="1.0631" stroke-miterlimit="10"/>
<g opacity="0.2">
<path d="M388.114 50.0676C383.171 50.0735 378.341 51.2225 374.234 53.3694C370.128 55.5164 366.929 58.5649 365.042 62.1298C363.156 65.6947 362.666 69.6158 363.635 73.3977C364.604 77.1797 366.988 80.6526 370.487 83.3777C373.985 86.1028 378.44 87.9576 383.289 88.7079C388.138 89.4582 393.163 89.0701 397.729 87.5929C402.295 86.1156 406.198 83.6154 408.944 80.4082C411.689 77.2011 413.155 73.4309 413.155 69.5741C413.145 64.3979 410.502 59.4365 405.807 55.7791C401.112 52.1218 394.749 50.0676 388.114 50.0676ZM388.114 83.3486C384.621 83.3471 381.206 82.5374 378.302 81.0218C375.398 79.5062 373.135 77.3528 371.8 74.834C370.465 72.3151 370.117 69.5439 370.8 66.8707C371.484 64.1976 373.168 61.7426 375.64 59.8162C378.112 57.8898 381.26 56.5785 384.687 56.0482C388.114 55.5178 391.666 55.7922 394.893 56.8367C398.12 57.8812 400.877 59.6488 402.817 61.916C404.756 64.1833 405.791 66.8483 405.789 69.5741C405.776 73.2269 403.909 76.727 400.597 79.3086C397.285 81.8901 392.796 83.3427 388.114 83.3486Z" fill="black"/>
</g>
<path d="M388.114 50.0676C383.171 50.0735 378.341 51.2225 374.234 53.3694C370.128 55.5164 366.929 58.5649 365.042 62.1298C363.156 65.6947 362.666 69.6158 363.635 73.3977C364.604 77.1797 366.988 80.6526 370.487 83.3777C373.985 86.1028 378.44 87.9576 383.289 88.7079C388.138 89.4582 393.163 89.0701 397.729 87.5929C402.295 86.1156 406.198 83.6154 408.944 80.4082C411.689 77.2011 413.155 73.4309 413.155 69.5741C413.145 64.3979 410.502 59.4365 405.807 55.7791C401.112 52.1218 394.749 50.0676 388.114 50.0676V50.0676ZM388.114 83.3486C384.621 83.3471 381.206 82.5374 378.302 81.0218C375.398 79.5062 373.135 77.3528 371.8 74.834C370.465 72.3151 370.117 69.5439 370.8 66.8707C371.484 64.1976 373.168 61.7426 375.64 59.8162C378.112 57.8898 381.26 56.5785 384.687 56.0482C388.114 55.5178 391.666 55.7922 394.893 56.8367C398.12 57.8812 400.877 59.6488 402.817 61.916C404.756 64.1833 405.791 66.8483 405.789 69.5741C405.776 73.2269 403.909 76.727 400.597 79.3086C397.285 81.8901 392.796 83.3427 388.114 83.3486V83.3486Z" stroke="#263238" stroke-width="1.0631" stroke-miterlimit="10"/>
<path d="M397.863 51.6006L395.015 56.8734C398.769 58.1123 401.859 60.3261 403.76 63.1395C405.661 65.9529 406.257 69.1927 405.445 72.3095C404.634 75.4263 402.466 78.2282 399.309 80.2402C396.152 82.2522 392.2 83.3504 388.124 83.3486V89.0732C393.899 89.0835 399.501 87.5331 403.977 84.6854C408.452 81.8377 411.526 77.8685 412.675 73.4527C413.823 69.0368 412.976 64.4469 410.278 60.4631C407.579 56.4794 403.196 53.3477 397.872 51.6006H397.863Z" fill="white" stroke="#263238" stroke-width="1.0631" stroke-linecap="round" stroke-linejoin="round"/>
<path d="M409.889 31.7388H306.71C304.914 31.7378 303.135 32.0129 301.475 32.5483C299.815 33.0837 298.306 33.8689 297.035 34.8592C295.764 35.8494 294.756 37.0253 294.067 38.3196C293.379 39.614 293.024 41.0015 293.022 42.4029V109.18C293.027 112.009 294.472 114.72 297.039 116.719C299.605 118.717 303.084 119.838 306.71 119.836H409.889C411.685 119.838 413.464 119.564 415.124 119.03C416.784 118.495 418.292 117.71 419.563 116.721C420.835 115.731 421.843 114.556 422.532 113.262C423.221 111.968 423.576 110.581 423.577 109.18V42.4029C423.576 41.0015 423.221 39.614 422.532 38.3196C421.844 37.0253 420.835 35.8494 419.564 34.8592C418.293 33.8689 416.785 33.0837 415.125 32.5483C413.465 32.0129 411.686 31.7378 409.889 31.7388V31.7388Z" stroke="#263238" stroke-width="1.0631" stroke-miterlimit="10"/>
<path d="M304.109 95.4792H343.444" stroke="#263238" stroke-width="1.0631" stroke-miterlimit="10"/>
<path d="M304.109 98.7598H343.444" stroke="#263238" stroke-width="1.0631" stroke-miterlimit="10"/>
<path d="M304.109 102.041H343.444" stroke="#263238" stroke-width="1.0631" stroke-miterlimit="10"/>
<path d="M304.109 105.329H343.444" stroke="#263238" stroke-width="1.0631" stroke-miterlimit="10"/>
<path d="M304.109 108.609H343.444" stroke="#263238" stroke-width="1.0631" stroke-miterlimit="10"/>
<path d="M369.073 95.4792H408.418" stroke="#263238" stroke-width="1.0631" stroke-miterlimit="10"/>
<path d="M369.073 98.7598H408.418" stroke="#263238" stroke-width="1.0631" stroke-miterlimit="10"/>
<path d="M369.073 102.041H408.418" stroke="#263238" stroke-width="1.0631" stroke-miterlimit="10"/>
<path d="M369.073 105.329H408.418" stroke="#263238" stroke-width="1.0631" stroke-miterlimit="10"/>
<path d="M369.073 108.609H408.418" stroke="#263238" stroke-width="1.0631" stroke-miterlimit="10"/>
<path d="M337.312 40.781H376.648" stroke="#263238" stroke-width="1.0631" stroke-miterlimit="10"/>
<path d="M337.312 44.0691H376.648" stroke="#263238" stroke-width="1.0631" stroke-miterlimit="10"/>
<path d="M292.605 243.288H409.054C412.902 243.29 416.593 242.1 419.316 239.98C422.039 237.859 423.572 234.982 423.577 231.98V136.291C423.576 134.804 423.199 133.332 422.469 131.959C421.738 130.585 420.668 129.338 419.319 128.287C417.971 127.236 416.37 126.403 414.609 125.835C412.847 125.267 410.96 124.975 409.054 124.976H237.057C235.151 124.975 233.263 125.267 231.502 125.835C229.741 126.403 228.14 127.236 226.792 128.287C225.443 129.338 224.373 130.585 223.642 131.959C222.912 133.332 222.535 134.804 222.534 136.291V199.343" stroke="#263238" stroke-width="1.0631" stroke-miterlimit="10"/>
<path d="M278.86 180.777H251.162V212.184H278.86V180.777Z" fill="#1258EB" stroke="#263238" stroke-width="1.16063" stroke-miterlimit="10"/>
<path opacity="0.2" d="M278.86 180.777H251.162V212.184H278.86V180.777Z" fill="black"/>
<path d="M278.86 180.777H251.162V212.184H278.86V180.777Z" stroke="#263238" stroke-width="1.16063" stroke-miterlimit="10"/>
<path d="M317.322 165.07H289.624V199.839H317.322V165.07Z" fill="#CA3030" stroke="#263238" stroke-width="1.16063" stroke-miterlimit="10"/>
<path d="M317.322 165.07H289.624V199.839H317.322V165.07Z" stroke="#263238" stroke-width="1.16063" stroke-miterlimit="10"/>
<path d="M355.784 152.177H328.086V175.171H355.784V152.177Z" fill="#1258EB" stroke="#263238" stroke-width="1.16063" stroke-miterlimit="10"/>
<path opacity="0.2" d="M355.784 152.177H328.086V175.171H355.784V152.177Z" fill="black"/>
<path d="M355.784 152.177H328.086V175.171H355.784V152.177Z" stroke="#263238" stroke-width="1.16063" stroke-miterlimit="10"/>
<path d="M278.86 212.177H251.162V225.078H278.86V212.177Z" fill="#263238" stroke="#263238" stroke-width="1.16063" stroke-linecap="round" stroke-linejoin="round"/>
<path d="M317.322 199.839H289.624V225.078H317.322V199.839Z" fill="#263238" stroke="#263238" stroke-width="1.16063" stroke-linecap="round" stroke-linejoin="round"/>
<path d="M391.978 165.07H364.28V199.839H391.978V165.07Z" fill="#CA3030" stroke="#263238" stroke-width="1.16063" stroke-miterlimit="10"/>
<path d="M391.978 165.07H364.28V199.839H391.978V165.07Z" stroke="#263238" stroke-width="1.16063" stroke-miterlimit="10"/>
<path d="M391.978 199.839H364.28V225.078H391.978V199.839Z" fill="#263238" stroke="#263238" stroke-width="1.16063" stroke-linecap="round" stroke-linejoin="round"/>
<path d="M355.784 175.163H328.086V225.077H355.784V175.163Z" fill="#263238" stroke="#263238" stroke-width="1.16063" stroke-linecap="round" stroke-linejoin="round"/>
<path d="M312.519 152.221H295.234C294.441 152.221 293.681 152.467 293.12 152.904C292.559 153.342 292.244 153.935 292.244 154.554V157.657C292.244 158.276 292.559 158.869 293.12 159.306C293.681 159.744 294.441 159.99 295.234 159.99H301.641L303.881 163.011L306.112 159.99H312.519C313.312 159.99 314.073 159.744 314.634 159.306C315.194 158.869 315.509 158.276 315.509 157.657V154.554C315.509 153.935 315.194 153.342 314.634 152.904C314.073 152.467 313.312 152.221 312.519 152.221Z" fill="#1258EB"/>
<path opacity="0.5" d="M312.519 152.221H295.234C294.441 152.221 293.681 152.467 293.12 152.904C292.559 153.342 292.244 153.935 292.244 154.554V157.657C292.244 158.276 292.559 158.869 293.12 159.306C293.681 159.744 294.441 159.99 295.234 159.99H301.641L303.881 163.011L306.112 159.99H312.519C313.312 159.99 314.073 159.744 314.634 159.306C315.194 158.869 315.509 158.276 315.509 157.657V154.554C315.509 153.935 315.194 153.342 314.634 152.904C314.073 152.467 313.312 152.221 312.519 152.221Z" fill="white"/>
<path d="M312.519 152.221H295.234C294.441 152.221 293.681 152.467 293.12 152.904C292.559 153.342 292.244 153.935 292.244 154.554V157.657C292.244 158.276 292.559 158.869 293.12 159.306C293.681 159.744 294.441 159.99 295.234 159.99H301.641L303.881 163.011L306.112 159.99H312.519C313.312 159.99 314.073 159.744 314.634 159.306C315.194 158.869 315.509 158.276 315.509 157.657V154.554C315.509 153.935 315.194 153.342 314.634 152.904C314.073 152.467 313.312 152.221 312.519 152.221V152.221Z" stroke="#263238" stroke-width="1.16689" stroke-linecap="round" stroke-linejoin="round"/>
<path d="M273.649 168.328H256.373C255.582 168.328 254.823 168.573 254.262 169.009C253.702 169.445 253.386 170.036 253.383 170.654V173.764C253.386 174.382 253.702 174.973 254.262 175.409C254.823 175.845 255.582 176.089 256.373 176.089H262.771L265.011 179.111L267.251 176.089H273.649C274.44 176.089 275.199 175.845 275.76 175.409C276.32 174.973 276.636 174.382 276.639 173.764V170.654C276.636 170.036 276.32 169.445 275.76 169.009C275.199 168.573 274.44 168.328 273.649 168.328Z" fill="#1258EB"/>
<path opacity="0.5" d="M273.649 168.328H256.373C255.582 168.328 254.823 168.573 254.262 169.009C253.702 169.445 253.386 170.036 253.383 170.654V173.764C253.386 174.382 253.702 174.973 254.262 175.409C254.823 175.845 255.582 176.089 256.373 176.089H262.771L265.011 179.111L267.251 176.089H273.649C274.44 176.089 275.199 175.845 275.76 175.409C276.32 174.973 276.636 174.382 276.639 173.764V170.654C276.636 170.036 276.32 169.445 275.76 169.009C275.199 168.573 274.44 168.328 273.649 168.328Z" fill="white"/>
<path d="M273.649 168.328H256.373C255.582 168.328 254.823 168.573 254.262 169.009C253.702 169.445 253.386 170.036 253.383 170.654V173.764C253.386 174.382 253.702 174.973 254.262 175.409C254.823 175.845 255.582 176.089 256.373 176.089H262.771L265.011 179.111L267.251 176.089H273.649C274.44 176.089 275.199 175.845 275.76 175.409C276.32 174.973 276.636 174.382 276.639 173.764V170.654C276.636 170.036 276.32 169.445 275.76 169.009C275.199 168.573 274.44 168.328 273.649 168.328V168.328Z" stroke="#263238" stroke-width="1.16689" stroke-linecap="round" stroke-linejoin="round"/>
<path d="M350.402 139.283H333.117C332.324 139.283 331.564 139.529 331.003 139.967C330.442 140.404 330.127 140.998 330.127 141.616V144.719C330.127 145.025 330.204 145.328 330.355 145.611C330.505 145.893 330.726 146.15 331.003 146.366C331.281 146.582 331.611 146.753 331.974 146.87C332.336 146.986 332.725 147.046 333.117 147.045H339.524L341.755 150.066L343.995 147.045H350.402C350.794 147.046 351.183 146.986 351.546 146.87C351.908 146.753 352.238 146.582 352.516 146.366C352.794 146.15 353.014 145.893 353.164 145.611C353.315 145.328 353.392 145.025 353.392 144.719V141.616C353.392 140.998 353.077 140.404 352.516 139.967C351.956 139.529 351.195 139.283 350.402 139.283Z" fill="#1258EB"/>
<path opacity="0.5" d="M350.402 139.283H333.117C332.324 139.283 331.564 139.529 331.003 139.967C330.442 140.404 330.127 140.998 330.127 141.616V144.719C330.127 145.025 330.204 145.328 330.355 145.611C330.505 145.893 330.726 146.15 331.003 146.366C331.281 146.582 331.611 146.753 331.974 146.87C332.336 146.986 332.725 147.046 333.117 147.045H339.524L341.755 150.066L343.995 147.045H350.402C350.794 147.046 351.183 146.986 351.546 146.87C351.908 146.753 352.238 146.582 352.516 146.366C352.794 146.15 353.014 145.893 353.164 145.611C353.315 145.328 353.392 145.025 353.392 144.719V141.616C353.392 140.998 353.077 140.404 352.516 139.967C351.956 139.529 351.195 139.283 350.402 139.283Z" fill="white"/>
<path d="M350.402 139.283H333.117C332.324 139.283 331.564 139.529 331.003 139.967C330.442 140.404 330.127 140.998 330.127 141.616V144.719C330.127 145.025 330.204 145.328 330.355 145.611C330.505 145.893 330.726 146.15 331.003 146.366C331.281 146.582 331.611 146.753 331.974 146.87C332.336 146.986 332.725 147.046 333.117 147.045H339.524L341.755 150.066L343.995 147.045H350.402C350.794 147.046 351.183 146.986 351.546 146.87C351.908 146.753 352.238 146.582 352.516 146.366C352.794 146.15 353.014 145.893 353.164 145.611C353.315 145.328 353.392 145.025 353.392 144.719V141.616C353.392 140.998 353.077 140.404 352.516 139.967C351.956 139.529 351.195 139.283 350.402 139.283V139.283Z" stroke="#263238" stroke-width="1.16689" stroke-linecap="round" stroke-linejoin="round"/>
<path d="M386.804 152.021H369.529C368.736 152.021 367.975 152.267 367.415 152.704C366.854 153.141 366.539 153.735 366.539 154.354V157.456C366.539 157.762 366.616 158.065 366.767 158.348C366.917 158.631 367.137 158.887 367.415 159.103C367.693 159.319 368.023 159.491 368.385 159.607C368.748 159.723 369.137 159.783 369.529 159.782H375.927L378.167 162.803L380.407 159.782H386.804C387.197 159.783 387.586 159.723 387.949 159.607C388.313 159.491 388.643 159.32 388.922 159.104C389.2 158.888 389.421 158.631 389.573 158.349C389.724 158.066 389.803 157.763 389.804 157.456V154.354C389.801 153.734 389.484 153.141 388.922 152.704C388.36 152.266 387.598 152.021 386.804 152.021Z" fill="#1258EB"/>
<path opacity="0.5" d="M386.804 152.021H369.529C368.736 152.021 367.975 152.267 367.415 152.704C366.854 153.141 366.539 153.735 366.539 154.354V157.456C366.539 157.762 366.616 158.065 366.767 158.348C366.917 158.631 367.137 158.887 367.415 159.103C367.693 159.319 368.023 159.491 368.385 159.607C368.748 159.723 369.137 159.783 369.529 159.782H375.927L378.167 162.803L380.407 159.782H386.804C387.197 159.783 387.586 159.723 387.949 159.607C388.313 159.491 388.643 159.32 388.922 159.104C389.2 158.888 389.421 158.631 389.573 158.349C389.724 158.066 389.803 157.763 389.804 157.456V154.354C389.801 153.734 389.484 153.141 388.922 152.704C388.36 152.266 387.598 152.021 386.804 152.021Z" fill="white"/>
<path d="M386.804 152.021H369.529C368.736 152.021 367.975 152.267 367.415 152.704C366.854 153.141 366.539 153.735 366.539 154.354V157.456C366.539 157.762 366.616 158.065 366.767 158.348C366.917 158.631 367.137 158.887 367.415 159.103C367.693 159.319 368.023 159.491 368.385 159.607C368.748 159.723 369.137 159.783 369.529 159.782H375.927L378.167 162.803L380.407 159.782H386.804C387.197 159.783 387.586 159.723 387.949 159.607C388.313 159.491 388.643 159.32 388.922 159.104C389.2 158.888 389.421 158.631 389.573 158.349C389.724 158.066 389.803 157.763 389.804 157.456V154.354C389.801 153.734 389.484 153.141 388.922 152.704C388.36 152.266 387.598 152.021 386.804 152.021V152.021Z" stroke="#263238" stroke-width="1.16689" stroke-linecap="round" stroke-linejoin="round"/>
<path d="M252.102 134.869H291.447" stroke="#263238" stroke-width="1.0631" stroke-miterlimit="10"/>
<path d="M252.102 138.15H291.447" stroke="#263238" stroke-width="1.0631" stroke-miterlimit="10"/>
<path d="M252.102 141.438H291.447" stroke="#263238" stroke-width="1.0631" stroke-miterlimit="10"/>
<path d="M252.102 144.719H291.447" stroke="#263238" stroke-width="1.0631" stroke-miterlimit="10"/>
<path d="M252.102 148H291.447" stroke="#263238" stroke-width="1.0631" stroke-miterlimit="10"/>
<path d="M40.9878 187.22C40.4657 187.709 39.9341 188.227 39.3646 188.819C32.3025 196.225 35.9854 211.777 31.695 217.516C27.4045 223.256 16.6595 221.612 14.5142 230.632C12.369 239.652 13.565 249.072 11.752 253.589C9.93904 258.107 2.85792 260.995 1.62394 266.297C0.389967 271.6 0.0197754 275.443 0.0197754 275.443L40.9878 274.392V187.22Z" fill="#E5CEDB"/>
<path d="M186.673 274.725L144.604 278.517L157.522 287.848L186.53 285.885" fill="#263238"/>
<path d="M186.673 274.725L144.604 278.517L157.522 287.848L186.53 285.885" stroke="#263238" stroke-width="0.969857" stroke-linecap="round" stroke-linejoin="round"/>
<path d="M158.32 280.005L185.268 277.709" stroke="white" stroke-width="0.484928" stroke-linecap="round" stroke-linejoin="round"/>
<path d="M160.427 282.301L184.85 280.664" stroke="white" stroke-width="0.484928" stroke-linecap="round" stroke-linejoin="round"/>
<path d="M162.952 284.271L185.268 282.627" stroke="white" stroke-width="0.484928" stroke-linecap="round" stroke-linejoin="round"/>
<path d="M161.006 278.657L168.685 285.189" stroke="white" stroke-width="0.484928" stroke-linecap="round" stroke-linejoin="round"/>
<path d="M166.692 278.442L174.323 284.596" stroke="white" stroke-width="0.484928" stroke-linecap="round" stroke-linejoin="round"/>
<path d="M172.596 277.783L180.218 283.938" stroke="white" stroke-width="0.484928" stroke-linecap="round" stroke-linejoin="round"/>
<path d="M178.908 277.458L185.268 282.627" stroke="white" stroke-width="0.484928" stroke-linecap="round" stroke-linejoin="round"/>
<path d="M143.463 198.115C142.077 197.655 135.66 178.171 135.66 178.171L132.357 170.825C132.357 170.825 127.392 157.606 125.494 155.147C123.596 152.688 116.002 150.704 116.002 150.704L113.154 149.482L100.814 144.298V144.35L99.0394 141.454L77.7961 128.124C77.7961 128.124 78.1757 131.338 78.7453 134.507C78.6883 134.507 74.3219 136.729 72.7652 138.677C72.471 139.04 72.2147 139.817 71.0377 141.854C66.2916 143.765 48.418 151.074 42.5044 154.636C35.5656 158.805 34.3032 161.753 34.6164 164.211L34.9392 168.136C34.9392 168.136 37.9007 182.207 40.9856 189.146L40.606 189.006L40.5015 275.37L129.376 272.741L129.519 208.586C132.556 207.809 135.717 206.898 137.625 206.239L138.099 206.572L142.105 208.86C142.749 209.238 143.497 209.494 144.289 209.608C145.081 209.723 145.896 209.692 146.671 209.519C148.37 209.142 147.307 207.572 146.073 207.053C145.136 206.56 144.248 206.013 143.415 205.416L139.713 201.817C141.934 202.128 145.494 202.617 146.975 202.78C149.177 203.024 152.015 203.521 152.328 201.299C152.641 199.077 145.674 198.855 143.463 198.115Z" fill="white"/>
<path d="M78.0925 127.049C78.0925 127.049 79.298 137.491 80.0859 139.372C80.7978 141.075 84.3953 150.369 87.5467 154.539C90.6981 158.708 94.5424 158.241 95.1404 153.561C95.7384 148.881 95.4346 141.29 95.4346 141.29" stroke="#263238" stroke-width="0.969857" stroke-linecap="round" stroke-linejoin="round"/>
<path d="M78.8139 133.647C78.8139 133.647 74.6279 135.639 73.0522 137.602C71.4765 139.564 64.851 157.73 64.851 157.73L77.4565 158.226L66.7399 161.929" stroke="#263238" stroke-width="0.969857" stroke-linecap="round" stroke-linejoin="round"/>
<path d="M67.0625 164.114C67.0625 164.114 77.7791 177.866 79.3548 179.347C80.3228 180.264 81.1659 181.257 81.8702 182.309" stroke="#263238" stroke-width="0.969857" stroke-linecap="round" stroke-linejoin="round"/>
<path d="M79.6683 137.876C79.6683 137.876 85.0219 155.064 88.2112 164.144C91.4006 173.223 94.4476 184.532 94.4476 184.532" stroke="#263238" stroke-width="0.969857" stroke-linecap="round" stroke-linejoin="round"/>
<path d="M95.3964 143.252C95.3964 143.252 96.6589 163.137 96.6589 170.994V183.51" stroke="#263238" stroke-width="0.969857" stroke-linecap="round" stroke-linejoin="round"/>
<path d="M99.8388 141.283L108.353 154.791L101.415 156.509L112.131 161.167L102.364 184.983" stroke="#263238" stroke-width="0.969857" stroke-linecap="round" stroke-linejoin="round"/>
<path d="M101.101 143.252L113.394 148.407" stroke="#263238" stroke-width="0.969857" stroke-linecap="round" stroke-linejoin="round"/>
<path d="M123.171 163.381L124.746 186.457" stroke="#263238" stroke-width="0.969857" stroke-linecap="round" stroke-linejoin="round"/>
<path d="M71.1535 140.794C71.1535 140.794 49.7203 149.384 42.7911 153.561C35.8619 157.738 34.5899 160.678 34.9031 163.137" stroke="#263238" stroke-width="0.969857" stroke-linecap="round" stroke-linejoin="round"/>
<path d="M40.8928 187.931V273.851" stroke="#263238" stroke-width="0.969857" stroke-linecap="round" stroke-linejoin="round"/>
<path d="M96.3741 209.044V270.667" stroke="#263238" stroke-width="0.969857" stroke-linecap="round" stroke-linejoin="round"/>
<path d="M48.5909 161.914C48.5909 161.914 55.8239 163.892 59.0322 168.683" stroke="#263238" stroke-width="0.969857" stroke-linecap="round" stroke-linejoin="round"/>
<path d="M53.2896 161.633C53.2896 161.633 59.8011 163.611 62.6962 168.402" stroke="#263238" stroke-width="0.969857" stroke-linecap="round" stroke-linejoin="round"/>
<path d="M48.9516 240.496H72.9477V244.169H49.8059" stroke="#263238" stroke-width="0.969857" stroke-linecap="round" stroke-linejoin="round"/>
<path d="M137.684 180.31C135.425 175.867 133.536 172.164 132.549 169.728C132.601 171.205 132.266 172.674 131.566 174.047C130.866 175.419 129.815 176.666 128.477 177.711C121.927 182.702 120.076 180.97 120.37 187.901C120.664 194.833 124.167 197.98 121.974 203.89C119.782 209.8 110.242 215.635 110.584 225.87C110.707 228.114 111.507 230.304 112.919 232.261L73.4127 273.399L129.91 272.103V213.251L137.684 180.31Z" fill="#AA5D89"/>
<path opacity="0.7" d="M136.742 179.533C134.482 175.09 132.593 171.387 131.606 168.951C131.658 170.427 131.324 171.897 130.624 173.269C129.924 174.642 128.873 175.889 127.534 176.934C120.985 181.925 119.134 180.192 119.428 187.124C119.722 194.056 123.225 197.203 121.032 203.113C118.839 209.023 109.3 214.858 109.642 225.093C109.765 227.337 110.565 229.527 111.977 231.484L72.4704 272.622L128.967 271.326V212.474L136.742 179.533Z" fill="white"/>
<path d="M129.957 243.984V269.556" stroke="#263238" stroke-width="0.969857" stroke-linecap="round" stroke-linejoin="round"/>
<path d="M111.533 106.669C113.431 106.424 122.876 101.759 121.3 97.093C119.725 92.4275 106.464 86.777 96.0609 89.4875C89.7936 91.1153 84.0047 93.7008 79.032 97.093C79.032 97.093 72.1028 97.093 69.5399 99.3147C66.9771 101.536 68.9135 104.958 70.4891 107.417C71.856 109.542 71.7991 115.178 71.7611 116.637C71.6751 116.633 71.5895 116.648 71.5143 116.681C70.9868 116.908 70.5265 117.219 70.1634 117.595C69.8004 117.97 69.5427 118.4 69.407 118.858C68.9799 120.339 69.7677 122.317 71.6851 124.553C72.3231 125.393 73.22 126.095 74.2942 126.595C75.3684 127.096 76.5859 127.379 77.836 127.419C78.6582 128.158 79.3276 128.993 79.8199 129.893C80.6172 131.374 88.5621 140.883 93.1089 141.157C93.7638 141.201 94.3903 141.216 95.0073 141.216C98.9275 141.216 101.775 140.394 103.303 138.809C105.325 136.713 110.337 128.263 110.964 124.153C111.068 123.413 111.125 122.487 111.153 121.376C111.855 120.683 112.236 119.826 112.236 118.943C112.236 118.061 111.855 117.203 111.153 116.511C111.049 112.164 110.755 107.661 110.679 106.624C110.955 106.689 111.248 106.705 111.533 106.669Z" fill="#EBB376"/>
<path d="M110.242 106.424C110.242 106.424 111.191 119.925 110.555 124.101C109.919 128.278 104.86 136.617 102.962 138.587C101.063 140.557 97.2664 141.038 93.1943 140.808C89.1221 140.579 81.2152 131.477 80.266 129.759C79.7401 128.767 78.9947 127.855 78.0638 127.064C78.0638 127.064 74.5992 127.308 72.0743 124.361C69.5494 121.413 68.6097 118.436 71.7611 116.992" stroke="#EBB376" stroke-width="0.969857" stroke-linecap="round" stroke-linejoin="round"/>
<path d="M96.6874 119.68C96.6874 119.68 98.899 116.718 101.101 118.451L102.677 126.308L97.9308 127.293L98.5573 131.218" stroke="#263238" stroke-width="0.969857" stroke-linecap="round" stroke-linejoin="round"/>
<path d="M91.9603 123.361C94.571 123.361 96.6874 121.713 96.6874 119.68C96.6874 117.648 94.571 116 91.9603 116C89.3496 116 87.2332 117.648 87.2332 119.68C87.2332 121.713 89.3496 123.361 91.9603 123.361Z" fill="#EB1212" stroke="#263238" stroke-width="0.969857" stroke-linecap="round" stroke-linejoin="round"/>
<path d="M111.818 118.947C111.818 118.215 111.54 117.499 111.018 116.89C110.497 116.281 109.755 115.806 108.888 115.526C108.021 115.246 107.067 115.172 106.146 115.315C105.225 115.458 104.38 115.811 103.716 116.329C103.052 116.847 102.6 117.506 102.417 118.225C102.234 118.943 102.328 119.687 102.687 120.364C103.046 121.041 103.655 121.619 104.435 122.026C105.216 122.433 106.133 122.65 107.072 122.65C108.331 122.65 109.538 122.26 110.428 121.565C111.318 120.871 111.818 119.929 111.818 118.947Z" fill="#F70000" stroke="#263238" stroke-width="0.969857" stroke-linecap="round" stroke-linejoin="round"/>
<path d="M87.2337 119.68L77.7795 120.168" stroke="#263238" stroke-width="0.969857" stroke-linecap="round" stroke-linejoin="round"/>
<path d="M87.3095 114.563C87.3095 114.563 89.8439 112.593 94.552 113.719" stroke="#263238" stroke-width="0.969857" stroke-linecap="round" stroke-linejoin="round"/>
<path d="M103.237 113.437C103.237 113.437 107.983 111.467 109.388 114" stroke="#263238" stroke-width="0.969857" stroke-linecap="round" stroke-linejoin="round"/>
<path d="M81.557 106.913C81.557 106.913 84.0819 111.579 84.7084 112.319C85.3349 113.06 81.557 116.488 81.557 116.488V119.925L77.7601 120.169L73.9633 117.473L71.7611 116.977C71.7611 116.977 72.0744 109.86 70.4987 107.409C68.923 104.958 67.0341 101.485 69.5495 99.3074C72.0649 97.1301 79.0416 97.0857 79.0416 97.0857C84.0142 93.6934 89.8032 91.1079 96.0704 89.4801C106.512 86.777 119.706 92.4423 121.281 97.0857C122.857 101.729 113.432 106.424 111.533 106.669C109.635 106.913 106.787 103.973 103.939 103.973H99.5256C96.3742 103.973 96.0609 103.721 92.5868 103.721C89.1127 103.721 81.557 106.913 81.557 106.913Z" fill="#263238"/>
<path d="M85.5056 102.884C85.5056 102.884 90.8877 100.559 93.5834 96.5971C96.2792 92.635 87.2997 94.5013 84.9076 97.0636C82.5156 99.626 88.2014 98.6929 88.2014 98.6929" stroke="white" stroke-width="0.484928" stroke-linecap="round" stroke-linejoin="round"/>
<path d="M81.5571 106.913C81.5571 106.913 78.3298 109.638 74.1438 109.875" stroke="white" stroke-width="0.484928" stroke-linecap="round" stroke-linejoin="round"/>
<path d="M83.1137 110.342C83.1137 110.342 77.4185 112.438 74.4379 112.438" stroke="white" stroke-width="0.484928" stroke-linecap="round" stroke-linejoin="round"/>
<path d="M74.4379 114.296C74.4379 114.296 78.9277 115.036 81.3197 114.296" stroke="white" stroke-width="0.484928" stroke-linecap="round" stroke-linejoin="round"/>
<path d="M90.2899 103.351C90.2899 103.351 92.6819 103.121 100.456 101.025C108.23 98.9296 110.897 96.582 105.838 93.5679" stroke="white" stroke-width="0.484928" stroke-linecap="round" stroke-linejoin="round"/>
<path d="M246.53 235.008C246.53 235.008 234.143 209.303 230.963 206.83C227.783 204.356 211.846 196.78 211.846 196.78L210.565 195.07L209.786 192.989C209.786 192.989 208.837 189.856 206.103 188.308L205.885 187.945L187.091 181.665C187.091 181.665 187.224 183.606 187.423 185.946C185.202 186.575 180.275 188.264 178.586 191.27C177.485 193.218 176.858 196.454 176.545 199.498L175.776 199.942L176.061 199.128C176.061 199.128 155.254 208.229 154.314 209.71C153.099 210.955 149.957 218.931 149.957 218.931C149.957 218.931 146.825 226.595 143.379 235.06C138.52 246.702 133.821 258.336 133.517 260.195C133.517 260.365 133.517 260.284 133.517 260.284C133.204 263.475 148.828 275.243 148.828 275.243H149.037L150.935 276.724C150.935 276.724 150.935 276.576 150.935 276.109C152.255 278.205 154.409 281.293 156.118 280.642C157.523 280.101 157.067 278.198 155.928 275.717C157.342 277.398 158.966 278.62 160.256 278.131C162.487 277.272 161.377 274.303 159.136 270.052C158.945 269.689 158.653 269.364 158.283 269.099C157.912 268.834 157.471 268.636 156.991 268.519C157.713 268.459 158.443 268.4 159.193 268.326C159.943 271.044 161.623 273.399 163.512 273.088C165.401 272.777 165.686 270.866 165.306 267.615C165.496 267.615 165.752 267.178 165.942 267.156C166.778 269.444 168.059 271.481 169.673 271.214C171.448 270.918 171.932 269.541 171.723 266.771C171.723 265.742 171.628 265.408 171.581 264.757C172.273 265.09 175.672 266.689 176.061 266.919C177.323 267.66 186.929 266.06 186.929 266.06C200.959 262.52 223.389 262.357 237.873 254.789C247.546 249.701 246.53 235.008 246.53 235.008ZM158.102 256.033L161.899 236.541L163.408 254.315L162.962 258.699L158.102 256.033Z" fill="white"/>
<path d="M154.371 209.288L176.972 198.921C176.972 198.921 178.386 189.471 181.272 188.508C181.272 188.508 185.239 185.805 189.748 186.338C192.33 186.635 194.238 184.117 195.7 179.733C195.7 171.061 195.548 159.989 195.434 153.072C194.485 149.658 193.459 146.889 193.118 145.807L182.468 142.319C182.468 142.319 180.189 136.321 168.476 134.98C156.763 133.64 144.205 143.437 142.772 150.11C141.338 156.782 149.625 163.899 146.483 167.684C143.341 171.468 130.204 177.022 126.777 183.472C123.351 189.923 124.205 194.374 124.205 194.374C124.205 194.374 133.631 204.823 131.058 208.385C128.486 211.947 113.355 215.28 113.64 225.736C113.906 235.423 126.198 242.244 139.819 243.51L154.371 209.288Z" fill="#263238"/>
<path d="M179.098 144.104C179.098 144.104 171.03 136.891 160.864 139.216C150.697 141.542 146.806 149.932 148.903 154.124C151.001 158.315 155.776 161.803 152.188 168.091C148.6 174.378 139.63 175.311 135.102 182.532C130.574 189.752 131.818 192.085 131.818 192.085" stroke="white" stroke-width="0.484928" stroke-linecap="round" stroke-linejoin="round"/>
<path d="M173.716 150.162C173.716 150.162 166.246 150.858 166.246 154.605C166.246 158.353 170.432 160.189 170.992 164.847C171.552 169.505 169.796 171.372 165.296 177.192C160.797 183.013 160.55 186.042 163.806 190.004C167.062 193.966 169.188 200.483 165.002 202.809" stroke="white" stroke-width="0.484928" stroke-linecap="round" stroke-linejoin="round"/>
<path d="M175.51 145.504C175.51 145.504 166.54 141.801 159.374 145.274C152.207 148.747 161.766 155.753 162.962 162.27C164.158 168.787 158.216 173.453 150.109 180.436C147.735 182.549 145.971 185.037 144.939 187.73C143.908 190.422 143.631 193.257 144.129 196.04" stroke="white" stroke-width="0.484928" stroke-linecap="round" stroke-linejoin="round"/>
<path d="M143.522 204.193C143.522 204.193 145.61 207.681 139.924 212.34C134.238 216.998 121.984 218.168 119.042 225.151C116.099 232.135 121.975 235.867 121.975 235.867" stroke="white" stroke-width="0.484928" stroke-linecap="round" stroke-linejoin="round"/>
<path d="M187.157 181.273C187.157 181.273 187.783 190.634 188.419 193.085C189.055 195.536 191.59 204.29 192.548 212.021C193.012 216.033 193.965 220.001 195.396 223.87C195.396 223.87 203.075 247.139 203.531 217.909C203.692 207.6 202.268 191.397 202.268 191.397L202.895 186.487" fill="white"/>
<g style="mix-blend-mode:multiply" opacity="0.3">
<path d="M200 187.257L188.419 193.085L187.679 183.243C187.679 183.243 195.415 186.812 200 187.257Z" fill="#1258EB"/>
</g>
<g style="mix-blend-mode:multiply" opacity="0.3">
<path d="M202.287 191.367C202.287 191.367 201.908 208.074 200.863 215.139C200.287 219.629 200.881 224.163 202.61 228.469C202.61 228.469 204.062 202.624 202.287 191.367Z" fill="#1258EB"/>
</g>
<path d="M187.157 181.273C187.157 181.273 187.783 190.634 188.419 193.085C189.055 195.536 191.59 204.29 192.548 212.021C193.012 216.033 193.965 220.001 195.396 223.87C195.396 223.87 203.075 247.139 203.531 217.909C203.692 207.6 202.268 191.397 202.268 191.397L202.895 186.487" stroke="#263238" stroke-width="0.969857" stroke-linecap="round" stroke-linejoin="round"/>
<path d="M178.804 220.493L176.801 223.841L189.976 233.875L178.804 220.493Z" fill="#1258EB"/>
<path opacity="0.7" d="M178.804 220.493L176.801 223.841L189.976 233.875L178.804 220.493Z" fill="white"/>
<path d="M163.455 227.891C163.455 227.891 167.86 219.952 169.245 221.759C170.631 223.566 161.832 231.32 165.306 232.401C168.78 233.483 173.849 229.513 172.254 232.757C170.66 236.001 167.86 239.792 167.86 241.421C167.86 243.051 168.809 259.099 168.809 259.099L169.046 260.18L166.265 261.661C166.265 261.661 163.256 259.313 163.256 257.329C163.256 255.344 162.791 247.405 162.791 245.606C162.791 243.806 161.709 237.459 161.709 237.459L163.455 227.891Z" fill="#1258EB"/>
<path opacity="0.7" d="M163.455 227.891C163.455 227.891 167.859 219.952 169.245 221.759C170.631 223.566 161.832 231.32 165.306 232.401C168.78 233.483 173.849 229.513 172.254 232.757C170.66 236.001 167.859 239.792 167.859 241.421C167.859 243.051 168.809 259.099 168.809 259.099L169.046 260.18L166.265 261.661C166.265 261.661 163.256 259.313 163.256 257.329C163.256 255.344 162.791 247.405 162.791 245.606C162.791 243.806 161.841 237.015 161.841 237.015L163.455 227.891Z" fill="white"/>
<path d="M187.308 185.886C187.308 185.886 180.854 186.945 178.642 190.878C176.43 194.81 176.127 203.89 176.44 206.341C176.615 208.313 176.615 210.293 176.44 212.265L185.268 210.044" fill="white"/>
<g style="mix-blend-mode:multiply" opacity="0.3">
<path d="M188.524 192.122C185.865 192.171 183.306 192.926 181.272 194.262C177.541 196.551 177.152 200.676 177.152 200.676C177.152 200.676 175.975 195.788 178.329 191.515C180.683 187.242 187.309 185.886 187.309 185.886L188.524 192.122Z" fill="#1258EB"/>
</g>
<path d="M187.308 185.886C187.308 185.886 180.854 186.945 178.642 190.878C176.43 194.81 176.127 203.89 176.44 206.341C176.615 208.313 176.615 210.293 176.44 212.265L185.268 210.044" stroke="#263238" stroke-width="0.969857" stroke-linecap="round" stroke-linejoin="round"/>
<path d="M187.47 210.518L177.703 219.109C177.703 219.109 184.955 227.944 188.419 230.891" stroke="#263238" stroke-width="0.969857" stroke-linecap="round" stroke-linejoin="round"/>
<path d="M212.378 229.661L217.418 214.687L208.59 209.503L215.529 207.785L209.834 192.567C209.834 192.567 208.78 188.745 205.088 187.516" stroke="#263238" stroke-width="0.969857" stroke-linecap="round" stroke-linejoin="round"/>
<path d="M192.216 203.149C192.216 203.149 195.368 206.111 198.861 205.608C202.354 205.104 202.325 203.645 202.325 203.645" stroke="#263238" stroke-width="0.969857" stroke-linecap="round" stroke-linejoin="round"/>
<path d="M161.376 206.245C161.376 206.245 156.279 210.577 156.507 211.658C156.735 212.74 162.762 214.724 161.376 215.983C159.99 217.242 156.507 214.184 155.814 214.724C155.121 215.265 142.383 249.175 143.541 249.701C144.699 250.227 147.48 248.257 148.173 249.523C148.866 250.79 136.592 254.389 139.136 255.448C141.68 256.507 147.935 254.182 146.73 254.544C145.524 254.907 142.098 258.329 143.028 259.773C143.958 261.217 153.878 268.534 153.878 268.534C153.293 268.722 152.825 269.079 152.572 269.531C152.319 269.982 152.3 270.493 152.52 270.955C152.784 271.886 153.455 272.716 154.419 273.303C154.419 273.303 151.761 271.592 151.353 273.444C151.12 274.409 150.984 275.387 150.944 276.369L144.442 271.348C139.146 267.142 134.836 263.202 133.564 259.817C133.564 259.817 133.337 260.313 134.732 256.344C136.127 252.375 150.014 218.464 150.014 218.464C150.014 218.464 153.156 210.481 154.362 209.244C155.567 208.007 161.376 206.245 161.376 206.245Z" fill="#1258EB"/>
<path opacity="0.7" d="M161.376 206.245C161.376 206.245 156.279 210.577 156.507 211.658C156.735 212.74 162.762 214.724 161.376 215.983C159.99 217.242 156.507 214.184 155.814 214.724C155.121 215.265 142.383 249.175 143.541 249.701C144.699 250.227 147.48 248.257 148.173 249.523C148.866 250.79 136.592 254.389 139.136 255.448C141.68 256.507 147.936 254.182 146.73 254.544C145.525 254.907 142.098 258.329 143.028 259.773C143.958 261.217 153.878 268.534 153.878 268.534C153.293 268.722 152.825 269.079 152.572 269.531C152.319 269.982 152.3 270.493 152.52 270.955C152.784 271.886 153.455 272.716 154.419 273.303C154.419 273.303 151.761 271.592 151.353 273.444C150.945 275.295 150.736 276.51 150.736 276.51L144.442 271.326C137.874 266.208 133.811 262.172 133.564 259.795C133.564 259.795 132.796 260.921 134.732 256.322C136.374 252.412 150.014 218.442 150.014 218.442C150.014 218.442 153.156 210.459 154.362 209.222C155.567 207.985 161.376 206.245 161.376 206.245Z" fill="white"/>
<path d="M172.786 201.313V215.139L183.958 212.91L187.679 209.562L176.222 211.347L176.972 198.884L172.786 201.313Z" fill="#1258EB"/>
<path opacity="0.7" d="M172.786 201.313V215.139L183.958 212.91L187.679 209.562L176.222 211.347L176.972 198.884L172.786 201.313Z" fill="white"/>
<path d="M176.127 198.736C176.127 198.736 155.32 207.815 154.371 209.289C153.422 210.762 133.887 256.685 133.574 259.862C133.26 263.039 149.017 275.08 149.017 275.08" stroke="#263238" stroke-width="0.969857" stroke-linecap="round" stroke-linejoin="round"/>
<path d="M164.461 221.811L158.158 255.685" stroke="#263238" stroke-width="0.969857" stroke-linecap="round" stroke-linejoin="round"/>
<path d="M165.088 219.841L166.037 216.405" stroke="#263238" stroke-width="0.969857" stroke-linecap="round" stroke-linejoin="round"/>
<path d="M140.19 257.655C140.19 257.655 144.29 253.212 150.28 253.478C156.269 253.745 165.088 260.351 165.088 260.351" stroke="#263238" stroke-width="0.969857" stroke-linecap="round" stroke-linejoin="round"/>
<path d="M142.079 252.493C143.401 251.566 145.085 251.014 146.859 250.925C148.633 250.836 150.393 251.217 151.856 252.004" stroke="#263238" stroke-width="0.969857" stroke-linecap="round" stroke-linejoin="round"/>
<path d="M171.333 262.72C171.265 262.312 171.074 261.923 170.777 261.583C170.479 261.243 170.083 260.963 169.621 260.764C169.159 260.566 168.644 260.456 168.117 260.441C167.59 260.427 167.066 260.51 166.587 260.684C166.199 260.835 165.868 261.063 165.627 261.345C165.386 261.627 165.242 261.953 165.211 262.291C164.86 264.994 166.986 271.636 169.834 271.177C172.197 270.763 172.121 267.267 171.333 262.72Z" fill="white" stroke="#263238" stroke-width="0.969857" stroke-linecap="round" stroke-linejoin="round"/>
<path d="M164.993 264.683C164.923 264.276 164.731 263.887 164.433 263.548C164.135 263.209 163.739 262.93 163.277 262.732C162.815 262.535 162.3 262.425 161.774 262.411C161.248 262.397 160.724 262.481 160.247 262.654C159.858 262.803 159.526 263.029 159.285 263.31C159.043 263.591 158.901 263.916 158.87 264.253C158.519 266.956 160.645 273.599 163.493 273.14C165.895 272.725 165.819 269.237 164.993 264.683Z" fill="white" stroke="#263238" stroke-width="0.969857" stroke-linecap="round" stroke-linejoin="round"/>
<path d="M159.203 269.629C159.006 269.245 158.695 268.902 158.296 268.628C157.897 268.355 157.421 268.159 156.907 268.056C156.392 267.954 155.854 267.948 155.336 268.038C154.818 268.129 154.334 268.314 153.925 268.578C153.595 268.798 153.344 269.083 153.199 269.402C153.054 269.722 153.02 270.066 153.099 270.4C153.612 273.08 157.788 279.146 160.38 278.116C162.61 277.228 161.376 273.643 159.203 269.629Z" fill="white" stroke="#263238" stroke-width="0.969857" stroke-linecap="round" stroke-linejoin="round"/>
<path d="M155.121 274.369C154.976 274.081 154.745 273.824 154.447 273.619C154.149 273.414 153.793 273.267 153.409 273.19C153.024 273.114 152.621 273.109 152.234 273.178C151.847 273.246 151.486 273.386 151.182 273.584C150.936 273.751 150.75 273.963 150.64 274.202C150.531 274.44 150.501 274.697 150.555 274.947C150.944 276.954 154.058 281.457 156.004 280.709C157.674 280.064 156.791 277.554 155.121 274.369Z" fill="white" stroke="#263238" stroke-width="0.969857" stroke-linecap="round" stroke-linejoin="round"/>
<path d="M171.818 264.512C171.818 264.512 174.286 266.593 176.117 267.038C177.627 267.401 185.477 266.297 185.477 266.297" stroke="#263238" stroke-width="0.969857" stroke-linecap="round" stroke-linejoin="round"/>
<path d="M183.056 270.911C183.056 270.911 178.016 271.889 174.513 272.392C171.01 272.896 167.261 273.133 167.261 273.133C167.261 273.133 164.736 275.591 162.847 275.591" stroke="#263238" stroke-width="0.969857" stroke-linecap="round" stroke-linejoin="round"/>
<path d="M211.912 196.38C211.912 196.38 227.849 203.964 231.029 206.437C234.209 208.911 245.372 232.105 245.372 232.105" stroke="#263238" stroke-width="0.969857" stroke-linecap="round" stroke-linejoin="round"/>
<path d="M227.062 212.932L230.631 233.038" stroke="#263238" stroke-width="0.969857" stroke-linecap="round" stroke-linejoin="round"/>
<path d="M230.631 230.617L228.409 215.68L238.224 232.55L231.077 232.802L230.631 230.617Z" fill="#1258EB"/>
<path opacity="0.7" d="M230.631 230.617L228.409 215.68L238.224 232.55L231.077 232.802L230.631 230.617Z" fill="white"/>
<path d="M169.938 223.256L163.768 231.158L168.998 227.929" stroke="#263238" stroke-width="0.969857" stroke-linecap="round" stroke-linejoin="round"/>
<path d="M162.05 237.497C162.05 237.497 163.331 252.175 163.331 254.174C163.331 256.174 162.971 258.81 162.971 258.81" stroke="#263238" stroke-width="0.969857" stroke-linecap="round" stroke-linejoin="round"/>
<path d="M183.369 141.534C183.369 141.534 174.229 145.703 173.602 151.843C173.3 155.892 173.832 159.952 175.178 163.87C175.178 163.87 172.33 161.907 172.026 166.328C171.723 170.749 176.44 174.178 178.329 174.178H180.228C180.228 174.178 184.433 180.917 189.482 184.109C194.532 187.301 199.459 187.442 202.923 186.457C206.388 185.472 213.013 181.058 213.649 175.163C214.285 169.268 213.649 159.448 213.013 153.316C212.377 147.185 210.811 142.756 202.297 140.549C193.782 138.342 187.783 139.809 183.369 141.534Z" fill="#EBB376"/>
<g style="mix-blend-mode:multiply" opacity="0.3">
<path d="M175.178 163.87C175.178 163.87 172.33 161.907 172.026 166.328C171.723 170.749 176.44 174.178 178.329 174.178H180.228C180.228 174.178 184.433 180.91 189.482 184.109L191.647 185.272C192.384 185.62 193.155 185.922 193.953 186.175C192.254 184.546 188.562 180.791 186.825 177.415C184.527 172.971 183.977 163.588 184.527 157.567C185.078 151.547 189.112 149.088 189.112 149.088L183.417 148.866C182.572 148.866 178.158 153.99 173.678 156.93L175.178 163.87Z" fill="#1258EB"/>
</g>
<path d="M183.369 141.534C183.369 141.534 174.229 145.703 173.602 151.843C173.3 155.892 173.832 159.952 175.178 163.87C175.178 163.87 172.33 161.907 172.026 166.328C171.723 170.749 176.44 174.178 178.329 174.178H180.228C180.228 174.178 184.433 180.917 189.482 184.109C194.532 187.301 199.459 187.442 202.923 186.457C206.388 185.472 213.013 181.058 213.649 175.163C214.285 169.268 213.649 159.448 213.013 153.316C212.377 147.185 210.811 142.756 202.297 140.549C193.782 138.342 187.783 139.809 183.369 141.534Z" stroke="#263238" stroke-width="0.969857" stroke-linecap="round" stroke-linejoin="round"/>
<path d="M197.969 164.07C197.969 164.07 200.607 160.552 203.237 162.589L205.135 169.572L201.338 170.179L201.699 174.541" stroke="#263238" stroke-width="0.969857" stroke-linecap="round" stroke-linejoin="round"/>
<path d="M192.33 168.461C195.444 168.461 197.968 166.495 197.968 164.07C197.968 161.644 195.444 159.678 192.33 159.678C189.216 159.678 186.692 161.644 186.692 164.07C186.692 166.495 189.216 168.461 192.33 168.461Z" fill="#EB1212" stroke="#263238" stroke-width="0.969857" stroke-linecap="round" stroke-linejoin="round"/>
<path d="M216.032 163.189C216.034 162.318 215.705 161.467 215.088 160.742C214.471 160.018 213.592 159.452 212.563 159.116C211.534 158.78 210.401 158.69 209.306 158.856C208.211 159.022 207.204 159.438 206.411 160.05C205.618 160.662 205.076 161.444 204.852 162.296C204.628 163.149 204.732 164.034 205.152 164.84C205.572 165.646 206.288 166.337 207.211 166.826C208.134 167.315 209.221 167.58 210.337 167.587C211.082 167.593 211.821 167.484 212.512 167.265C213.203 167.047 213.831 166.724 214.361 166.315C214.89 165.906 215.311 165.419 215.598 164.882C215.884 164.346 216.032 163.77 216.032 163.189Z" fill="#EB1212" stroke="#263238" stroke-width="0.969857" stroke-linecap="round" stroke-linejoin="round"/>
<path d="M186.692 164.07L175.406 164.654" stroke="#263238" stroke-width="0.969857" stroke-linecap="round" stroke-linejoin="round"/>
<path d="M187.736 158.197C188.394 157.566 189.261 157.087 190.244 156.815C191.226 156.542 192.286 156.484 193.308 156.649" stroke="#263238" stroke-width="0.969857" stroke-linecap="round" stroke-linejoin="round"/>
<path d="M205.268 156.338C206.199 155.939 207.274 155.796 208.322 155.93C209.37 156.064 210.33 156.469 211.049 157.079" stroke="#263238" stroke-width="0.969857" stroke-linecap="round" stroke-linejoin="round"/>
<path d="M213.004 153.316C212.377 147.177 210.802 142.756 202.287 140.549C193.773 138.342 187.783 139.809 183.369 141.534C183.369 141.534 174.229 145.703 173.602 151.843C173.3 155.892 173.832 159.952 175.178 163.87C175.178 163.87 177.703 165.832 178.329 163.129C178.956 160.426 177.067 156.005 185.923 150.85C194.779 145.696 207.356 148.155 211.77 153.072C212.286 153.394 212.731 153.779 213.089 154.213C213.099 154.124 213.013 153.428 213.004 153.316Z" fill="#263238"/>
<path d="M75.2544 180.562C75.2544 180.562 67.6607 179.584 61.9654 182.532C60.3439 183.374 59.0662 184.561 58.2838 185.952C57.5014 187.344 57.2472 188.881 57.5516 190.382" stroke="#263238" stroke-width="0.969857" stroke-linecap="round" stroke-linejoin="round"/>
<path d="M58.8616 181.058C58.8616 181.058 55.0648 184.494 55.0648 187.442" stroke="#263238" stroke-width="0.969857" stroke-linecap="round" stroke-linejoin="round"/>
<path d="M35.2166 167.062C35.2166 167.062 39.0134 184.983 42.4685 190.382C45.9237 195.781 55.7575 200.942 63.2753 203.394C70.793 205.845 106.142 209.777 107.404 209.533C108.667 209.289 101.415 204.134 102.99 197.751C103.778 194.581 109.293 191.367 109.293 191.367C109.293 191.367 93.8494 186.183 87.8598 184.25C81.8703 182.317 75.2543 180.547 75.2543 180.547C75.2543 180.547 66.7114 174.415 62.6488 171.712C58.9133 169.419 55.0188 167.288 50.983 165.329" stroke="#263238" stroke-width="0.969857" stroke-linecap="round" stroke-linejoin="round"/>
<path d="M139.449 200.313L143.569 204.312C144.402 204.908 145.29 205.455 146.227 205.949C147.461 206.467 148.524 208.037 146.825 208.415C146.05 208.588 145.235 208.618 144.443 208.504C143.65 208.39 142.903 208.134 142.259 207.756L138.253 205.467L134.903 203.105L137.333 199.698L139.449 200.313Z" fill="#EBB376" stroke="#263238" stroke-width="0.969857" stroke-linecap="round" stroke-linejoin="round"/>
<path d="M109.293 191.367C109.293 191.367 119.07 193.085 122.221 193.589C125.372 194.092 141.452 196.292 143.654 197.025C145.856 197.758 152.795 198.01 152.482 200.217C152.169 202.424 149.331 201.935 147.128 201.698C144.926 201.461 137.978 200.476 137.978 200.476C137.978 200.476 140.19 203.668 139.563 204.401C138.937 205.134 124.746 209.066 121.908 209.066C119.07 209.066 117.162 205.134 115.918 203.882L112.121 200.18L104.528 197.484" fill="#EBB376"/>
<path d="M109.293 191.367C109.293 191.367 119.07 193.085 122.221 193.589C125.372 194.092 141.452 196.292 143.654 197.025C145.856 197.758 152.795 198.01 152.482 200.217C152.169 202.424 149.331 201.935 147.128 201.698C144.926 201.461 137.978 200.476 137.978 200.476C137.978 200.476 140.19 203.668 139.563 204.401C138.937 205.134 124.746 209.066 121.908 209.066C119.07 209.066 117.162 205.134 115.918 203.882L112.121 200.18L104.528 197.484" stroke="#EBB376" stroke-width="0.969857" stroke-linecap="round" stroke-linejoin="round"/>
<path d="M137.978 200.454L135.776 197.995" stroke="#263238" stroke-width="0.969857" stroke-linecap="round" stroke-linejoin="round"/>
<path d="M107.404 209.533C109.053 208.362 110.337 206.913 111.16 205.296C111.982 203.679 112.321 201.936 112.15 200.202" stroke="#263238" stroke-width="0.969857" stroke-linecap="round" stroke-linejoin="round"/>
<path d="M124.11 203.394L126.635 208.059" stroke="#263238" stroke-width="0.969857" stroke-linecap="round" stroke-linejoin="round"/>
<path d="M130.413 201.431L132.938 206.586" stroke="#263238" stroke-width="0.969857" stroke-linecap="round" stroke-linejoin="round"/>
<path d="M190.944 237.274V294.964L289.605 290.551V233.349L190.944 237.274Z" fill="#263238" stroke="#263238" stroke-width="0.969857" stroke-linecap="round" stroke-linejoin="round"/>
<path d="M289.605 233.35L284.555 231.135L186.843 234.823V291.04L190.944 294.965V237.275L289.605 233.35Z" fill="white" stroke="#263238" stroke-width="0.969857" stroke-linecap="round" stroke-linejoin="round"/>
<path d="M186.843 234.823L190.934 237.275" stroke="#263238" stroke-width="0.969857" stroke-linecap="round" stroke-linejoin="round"/>
<path d="M230.346 270.911V309.946L257.456 308.472V269.193L230.346 270.911Z" fill="#263238" stroke="#263238" stroke-width="0.969857" stroke-linecap="round" stroke-linejoin="round"/>
<path d="M229.501 293.009V270.911L257.456 269.193L257.532 291.639" stroke="white" stroke-width="0.969857" stroke-linecap="round" stroke-linejoin="round"/>
<path d="M230.346 309.946L216.156 300.126L230.346 299.63" fill="white"/>
<path d="M230.346 309.946L216.156 300.126L230.346 299.63" stroke="#263238" stroke-width="0.969857" stroke-linecap="round" stroke-linejoin="round"/>
<path opacity="0.7" d="M58.4246 273.873L148.078 280.879C148.078 280.879 144.641 278.724 145.98 278.517C148.524 278.132 152.292 277.865 152.292 277.865L144.385 271.363L58.4246 273.873Z" fill="#1258EB"/>
<path opacity="0.7" d="M58.4246 273.873L148.078 280.879C148.078 280.879 144.641 278.724 145.98 278.517C148.524 278.132 152.292 277.865 152.292 277.865L144.385 271.363L58.4246 273.873Z" fill="white"/>
<path d="M144.452 271.392L4.53802 275.28" stroke="#263238" stroke-width="0.969857" stroke-linecap="round" stroke-linejoin="round"/>
<path d="M288.931 269.044L383.245 314.456" stroke="#263238" stroke-width="0.969857" stroke-linecap="round" stroke-linejoin="round"/>
<path d="M117.494 280.479L68.1256 285.182L99.9337 311.242L153.146 306.11L117.494 280.479Z" fill="#EB1212"/>
<path opacity="0.7" d="M117.38 280.689L68.0118 285.392L99.8199 311.452L153.033 306.32L117.38 280.689Z" fill="white"/>
<path d="M67.0246 290.736L110.907 286.463L142.724 311.664L92.2546 317.218L67.0246 290.736Z" fill="white"/>
<path d="M93.7637 313.553C93.6882 313.553 93.6158 313.529 93.5623 313.488C93.5089 313.446 93.4789 313.39 93.4789 313.331C93.4789 313.272 93.5089 313.215 93.5623 313.174C93.6158 313.132 93.6882 313.109 93.7637 313.109L134.124 309.058C134.199 309.053 134.273 309.07 134.333 309.106C134.392 309.141 134.433 309.193 134.447 309.25C134.452 309.28 134.45 309.31 134.44 309.339C134.429 309.368 134.412 309.395 134.388 309.419C134.364 309.442 134.334 309.462 134.3 309.476C134.266 309.49 134.229 309.499 134.191 309.502L93.8396 313.553H93.7637Z" fill="#1258EB"/>
<path d="M91.5144 311.449C91.4389 311.449 91.3665 311.426 91.3131 311.384C91.2597 311.343 91.2297 311.286 91.2297 311.227C91.2297 311.168 91.2597 311.112 91.3131 311.07C91.3665 311.028 91.4389 311.005 91.5144 311.005L131.875 306.954C131.95 306.946 132.027 306.962 132.087 306.998C132.148 307.034 132.188 307.088 132.198 307.147C132.208 307.206 132.187 307.265 132.141 307.312C132.095 307.36 132.026 307.391 131.951 307.398L91.5999 311.449H91.5144Z" fill="#1258EB"/>
<path d="M89.2744 309.346C89.2035 309.347 89.1351 309.326 89.0824 309.289C89.0298 309.252 88.9967 309.201 88.9896 309.146C88.9814 309.088 89.0024 309.029 89.0484 308.982C89.0943 308.935 89.1617 308.904 89.2364 308.895L129.568 304.844C129.644 304.841 129.719 304.86 129.778 304.897C129.837 304.933 129.877 304.986 129.891 305.044C129.895 305.073 129.892 305.102 129.881 305.131C129.87 305.159 129.852 305.185 129.828 305.208C129.805 305.23 129.775 305.249 129.742 305.263C129.709 305.277 129.672 305.285 129.635 305.288L89.2839 309.346H89.2744Z" fill="#1258EB"/>
<path d="M87.0245 307.236C86.949 307.236 86.8766 307.212 86.8232 307.171C86.7697 307.129 86.7397 307.072 86.7397 307.013C86.7397 306.955 86.7697 306.898 86.8232 306.856C86.8766 306.815 86.949 306.791 87.0245 306.791L127.385 302.74C127.46 302.734 127.536 302.75 127.596 302.786C127.656 302.822 127.696 302.875 127.708 302.933C127.713 302.962 127.711 302.992 127.701 303.02C127.692 303.049 127.675 303.076 127.652 303.099C127.629 303.123 127.6 303.142 127.568 303.157C127.535 303.172 127.498 303.181 127.461 303.185L87.1005 307.236H87.0245Z" fill="#1258EB"/>
<path d="M84.7843 305.132C84.7149 305.133 84.6476 305.114 84.5952 305.078C84.5428 305.043 84.5087 304.993 84.4995 304.94C84.4942 304.911 84.4963 304.881 84.5059 304.852C84.5155 304.824 84.5322 304.797 84.5552 304.774C84.5782 304.75 84.6069 304.73 84.6397 304.716C84.6725 304.701 84.7088 304.692 84.7463 304.688L125.107 300.637C125.182 300.631 125.257 300.647 125.318 300.683C125.378 300.719 125.418 300.771 125.429 300.83C125.435 300.859 125.432 300.89 125.422 300.919C125.412 300.948 125.394 300.975 125.37 300.998C125.346 301.022 125.317 301.041 125.283 301.056C125.249 301.07 125.212 301.079 125.173 301.081L84.8222 305.132H84.7843Z" fill="#1258EB"/>
<path d="M82.5347 303.022C82.4639 303.022 82.3955 303.002 82.3428 302.965C82.2902 302.928 82.2571 302.877 82.25 302.822C82.244 302.764 82.2659 302.706 82.3115 302.659C82.3571 302.613 82.4231 302.581 82.4968 302.57L122.857 298.519C122.934 298.513 123.011 298.53 123.071 298.568C123.131 298.605 123.17 298.66 123.18 298.719C123.188 298.777 123.167 298.835 123.121 298.881C123.074 298.926 123.007 298.956 122.933 298.964L82.5727 303.022H82.5347Z" fill="#1258EB"/>
<path d="M80.2946 300.919C80.2252 300.919 80.158 300.9 80.1055 300.864C80.0531 300.829 80.0191 300.78 80.0098 300.726C80.0045 300.697 80.0067 300.667 80.0162 300.639C80.0258 300.61 80.0425 300.583 80.0655 300.56C80.0885 300.536 80.1172 300.517 80.15 300.502C80.1828 300.487 80.2191 300.478 80.2566 300.474L120.617 296.423C120.692 296.419 120.766 296.436 120.826 296.471C120.885 296.507 120.926 296.558 120.94 296.616C120.945 296.646 120.943 296.676 120.932 296.705C120.922 296.734 120.905 296.761 120.881 296.785C120.857 296.808 120.827 296.828 120.793 296.842C120.759 296.856 120.722 296.865 120.684 296.868L80.3325 300.919H80.2946Z" fill="#1258EB"/>
<path d="M78.0449 298.815C77.9694 298.815 77.8969 298.792 77.8435 298.75C77.7901 298.709 77.7601 298.652 77.7601 298.593C77.7601 298.534 77.7901 298.478 77.8435 298.436C77.8969 298.394 77.9694 298.371 78.0449 298.371L118.405 294.32C118.443 294.316 118.481 294.318 118.517 294.326C118.554 294.333 118.588 294.346 118.618 294.364C118.648 294.382 118.673 294.404 118.692 294.43C118.711 294.455 118.723 294.483 118.728 294.513C118.733 294.542 118.731 294.571 118.721 294.6C118.711 294.628 118.694 294.655 118.672 294.678C118.649 294.702 118.62 294.721 118.587 294.736C118.555 294.751 118.519 294.761 118.481 294.764L78.1208 298.815H78.0449Z" fill="#1258EB"/>
<path d="M75.8051 296.712C75.7342 296.712 75.6658 296.692 75.6131 296.655C75.5605 296.618 75.5274 296.567 75.5203 296.512C75.5121 296.453 75.5331 296.395 75.5791 296.348C75.625 296.301 75.6924 296.269 75.7671 296.26L116.128 292.209C116.204 292.205 116.279 292.223 116.339 292.26C116.399 292.297 116.439 292.35 116.45 292.409C116.454 292.439 116.451 292.468 116.44 292.496C116.429 292.524 116.411 292.551 116.388 292.573C116.364 292.596 116.334 292.615 116.301 292.629C116.268 292.642 116.231 292.651 116.194 292.654L75.843 296.712H75.8051Z" fill="#1258EB"/>
<path d="M73.5647 294.602C73.4892 294.602 73.4168 294.578 73.3634 294.537C73.31 294.495 73.28 294.438 73.28 294.379C73.28 294.32 73.31 294.264 73.3634 294.222C73.4168 294.181 73.4892 294.157 73.5647 294.157L113.925 290.106C114 290.1 114.076 290.116 114.136 290.152C114.196 290.188 114.236 290.241 114.248 290.299C114.253 290.328 114.251 290.358 114.242 290.386C114.232 290.415 114.215 290.442 114.192 290.465C114.169 290.489 114.141 290.508 114.108 290.523C114.075 290.538 114.039 290.547 114.001 290.551L73.5647 294.602Z" fill="#1258EB"/>
<g opacity="0.7">
<path d="M93.764 313.553C93.6885 313.553 93.6161 313.529 93.5627 313.488C93.5092 313.446 93.4792 313.39 93.4792 313.331C93.4792 313.272 93.5092 313.215 93.5627 313.174C93.6161 313.132 93.6885 313.109 93.764 313.109L134.124 309.058C134.199 309.053 134.274 309.07 134.333 309.106C134.393 309.141 134.433 309.193 134.447 309.25C134.453 309.28 134.45 309.31 134.44 309.339C134.43 309.368 134.412 309.395 134.388 309.419C134.364 309.442 134.334 309.462 134.3 309.476C134.267 309.49 134.229 309.499 134.191 309.502L93.8399 313.553H93.764Z" fill="white"/>
<path d="M91.5143 311.45C91.4387 311.45 91.3663 311.426 91.3129 311.385C91.2595 311.343 91.2295 311.286 91.2295 311.227C91.2295 311.168 91.2595 311.112 91.3129 311.07C91.3663 311.029 91.4387 311.005 91.5143 311.005L131.875 306.954C131.95 306.947 132.027 306.962 132.087 306.998C132.148 307.035 132.187 307.088 132.197 307.147C132.208 307.206 132.187 307.265 132.141 307.313C132.095 307.36 132.026 307.391 131.951 307.399L91.5997 311.45H91.5143Z" fill="white"/>
<path d="M89.2744 309.346C89.2036 309.347 89.1352 309.326 89.0825 309.289C89.0299 309.252 88.9967 309.201 88.9897 309.146C88.9814 309.088 89.0025 309.029 89.0484 308.982C89.0944 308.935 89.1617 308.904 89.2365 308.895L129.568 304.844C129.644 304.841 129.719 304.86 129.778 304.897C129.837 304.933 129.878 304.986 129.891 305.044C129.895 305.073 129.892 305.102 129.881 305.131C129.87 305.159 129.852 305.185 129.828 305.208C129.805 305.23 129.775 305.249 129.742 305.263C129.709 305.277 129.672 305.285 129.635 305.288L89.2839 309.346H89.2744Z" fill="white"/>
<path d="M87.0247 307.236C86.9492 307.236 86.8767 307.212 86.8233 307.171C86.7699 307.129 86.7399 307.072 86.7399 307.013C86.7399 306.955 86.7699 306.898 86.8233 306.856C86.8767 306.815 86.9492 306.791 87.0247 306.791L127.385 302.74C127.46 302.734 127.536 302.75 127.596 302.786C127.656 302.822 127.696 302.875 127.708 302.933C127.713 302.962 127.711 302.992 127.701 303.02C127.692 303.049 127.675 303.076 127.652 303.099C127.629 303.123 127.6 303.142 127.568 303.157C127.535 303.172 127.499 303.181 127.461 303.185L87.1006 307.236H87.0247Z" fill="white"/>
<path d="M84.7843 305.133C84.7149 305.133 84.6477 305.114 84.5953 305.078C84.5428 305.043 84.5088 304.994 84.4995 304.94C84.4942 304.911 84.4964 304.881 84.506 304.853C84.5155 304.824 84.5323 304.797 84.5553 304.774C84.5782 304.75 84.607 304.731 84.6398 304.716C84.6726 304.701 84.7088 304.692 84.7463 304.688L125.107 300.637C125.182 300.631 125.258 300.647 125.318 300.683C125.378 300.719 125.418 300.772 125.43 300.83C125.435 300.86 125.432 300.89 125.422 300.919C125.412 300.948 125.394 300.975 125.37 300.999C125.347 301.022 125.317 301.042 125.283 301.056C125.249 301.07 125.212 301.079 125.173 301.082L84.8223 305.133H84.7843Z" fill="white"/>
<path d="M82.5349 303.022C82.4641 303.022 82.3957 303.002 82.343 302.965C82.2904 302.928 82.2573 302.877 82.2502 302.822C82.2442 302.764 82.2661 302.706 82.3117 302.659C82.3572 302.613 82.4232 302.581 82.497 302.57L122.857 298.519C122.934 298.513 123.011 298.53 123.071 298.568C123.132 298.605 123.171 298.66 123.18 298.719C123.188 298.777 123.167 298.835 123.121 298.881C123.075 298.926 123.007 298.956 122.933 298.964L82.5729 303.022H82.5349Z" fill="white"/>
<path d="M80.2948 300.919C80.2254 300.919 80.1582 300.9 80.1058 300.864C80.0533 300.829 80.0193 300.78 80.01 300.726C80.0047 300.697 80.0069 300.667 80.0165 300.639C80.026 300.61 80.0428 300.583 80.0658 300.56C80.0887 300.536 80.1175 300.517 80.1503 300.502C80.1831 300.487 80.2193 300.478 80.2568 300.474L120.617 296.423C120.692 296.419 120.766 296.436 120.826 296.471C120.886 296.507 120.926 296.558 120.94 296.616C120.945 296.646 120.943 296.676 120.933 296.705C120.923 296.734 120.905 296.761 120.881 296.785C120.857 296.808 120.827 296.828 120.793 296.842C120.759 296.856 120.722 296.865 120.684 296.868L80.3328 300.919H80.2948Z" fill="white"/>
<path d="M78.0451 298.815C77.9696 298.815 77.8971 298.792 77.8437 298.75C77.7903 298.709 77.7603 298.652 77.7603 298.593C77.7603 298.534 77.7903 298.478 77.8437 298.436C77.8971 298.394 77.9696 298.371 78.0451 298.371L118.406 294.32C118.443 294.316 118.481 294.318 118.517 294.326C118.554 294.333 118.588 294.346 118.618 294.364C118.648 294.382 118.673 294.404 118.692 294.43C118.711 294.455 118.723 294.483 118.728 294.513C118.733 294.542 118.731 294.571 118.721 294.6C118.711 294.628 118.695 294.655 118.672 294.678C118.649 294.702 118.62 294.721 118.588 294.736C118.555 294.751 118.519 294.761 118.482 294.764L78.121 298.815H78.0451Z" fill="white"/>
<path d="M75.8049 296.712C75.734 296.713 75.6656 296.692 75.613 296.655C75.5603 296.618 75.5272 296.567 75.5201 296.512C75.5119 296.454 75.5329 296.395 75.5789 296.348C75.6248 296.301 75.6922 296.27 75.7669 296.261L116.127 292.21C116.204 292.205 116.279 292.223 116.339 292.26C116.399 292.297 116.438 292.351 116.45 292.41C116.454 292.439 116.451 292.468 116.44 292.496C116.429 292.525 116.411 292.551 116.387 292.574C116.363 292.596 116.334 292.615 116.301 292.629C116.268 292.643 116.231 292.651 116.194 292.654L75.8429 296.712H75.8049Z" fill="white"/>
<path d="M73.5647 294.602C73.4892 294.602 73.4168 294.578 73.3634 294.537C73.31 294.495 73.28 294.438 73.28 294.379C73.28 294.32 73.31 294.264 73.3634 294.222C73.4168 294.181 73.4892 294.157 73.5647 294.157L113.925 290.106C114 290.1 114.076 290.116 114.136 290.152C114.196 290.188 114.236 290.241 114.248 290.299C114.253 290.328 114.251 290.358 114.242 290.386C114.232 290.415 114.215 290.442 114.192 290.465C114.169 290.489 114.141 290.508 114.108 290.523C114.075 290.538 114.039 290.547 114.001 290.551L73.5647 294.602Z" fill="white"/>
</g>
<path d="M116.279 149.629C116.279 149.629 123.873 151.599 125.771 154.072C127.67 156.546 132.549 169.72 132.549 169.72" stroke="#263238" stroke-width="0.969857" stroke-linecap="round" stroke-linejoin="round"/>
</svg>
