<svg width="511" height="437" viewBox="0 0 511 437" fill="none" xmlns="http://www.w3.org/2000/svg">
<path d="M35.8176 240.5L44.0429 235.994C44.0429 235.994 48.9402 216.681 46.9918 199.316C44.243 174.887 27.2973 165.695 20.8519 167.803C14.4064 169.911 12.5423 177.015 23.211 191.563C29.4985 200.145 37.2288 218.019 35.8176 240.5Z" fill="#00DE09"/>
<path d="M39.2299 231.018H39.1456C38.9977 230.992 38.8669 230.91 38.782 230.792C38.6971 230.674 38.665 230.529 38.6928 230.389C43.2004 207.808 34.9118 182.531 24.6328 172C24.5308 171.894 24.4774 171.754 24.4844 171.61C24.4913 171.467 24.5579 171.332 24.6697 171.235C24.7814 171.139 24.929 171.088 25.0801 171.095C25.2312 171.101 25.3734 171.164 25.4753 171.27C35.9334 181.991 44.4326 207.719 39.8091 230.579C39.784 230.705 39.7118 230.82 39.6055 230.9C39.4992 230.981 39.3659 231.023 39.2299 231.018Z" fill="white"/>
<path d="M15.1015 251.84C13.8798 252.439 10.6044 249.782 9.69866 249.142C8.13879 248.017 6.90947 246.531 6.12838 244.826C5.24778 242.894 5.02682 240.749 5.49647 238.691C5.74765 237.605 6.07845 236.537 6.48646 235.494C6.85507 234.495 7.22369 233.436 7.60283 232.397C8.04242 231.401 8.26455 230.33 8.2558 229.25C8.07676 227.092 6.14944 225.493 4.39063 224.104C2.44224 222.566 0.441198 220.577 0.588644 217.99C0.844284 215.987 1.79244 214.121 3.28479 212.684C4.66446 211.186 6.28636 209.867 7.56071 208.278C8.555 207.157 9.11278 205.746 9.14048 204.282C9.06257 203.387 8.79383 202.517 8.35059 201.724C7.32784 200.068 6.44734 198.338 5.71764 196.548C5.15945 194.71 5.37009 192.462 6.9288 191.233C7.62079 190.797 8.39647 190.496 9.21148 190.345C10.0265 190.194 10.8649 190.197 11.6786 190.354C13.2176 190.61 14.6799 191.179 15.9651 192.022C20.1778 194.51 22.3895 199.496 26.8866 201.474C28.6802 202.097 30.5127 202.614 32.3737 203.023C33.3059 203.235 34.1814 203.629 34.9446 204.179C35.7079 204.73 36.3423 205.425 36.8076 206.22C38.3241 209.497 34.9855 213.294 35.9861 216.741C36.8813 219.738 39.8934 221.087 41.4731 223.874C42.1193 225.111 42.3297 226.512 42.0735 227.871C41.8011 230.16 41.0871 232.382 39.9671 234.425C38.7099 236.524 37.3207 238.549 35.807 240.49C35.807 240.49 15.2911 251.77 15.1015 251.84Z" fill="#9FBB70"/>
<path d="M27.013 245.955C26.8695 245.942 26.737 245.876 26.6443 245.772C26.5517 245.667 26.5063 245.532 26.518 245.395C28.4874 225.133 19.5986 202.233 12.6055 195.369C12.5063 195.271 12.4523 195.14 12.4552 195.004C12.4582 194.868 12.5179 194.739 12.6213 194.645C12.7246 194.551 12.8631 194.499 13.0063 194.502C13.1495 194.505 13.2857 194.562 13.3848 194.66C20.5149 201.653 29.5933 224.943 27.5922 245.485C27.5869 245.552 27.5677 245.618 27.5356 245.677C27.5036 245.737 27.4594 245.791 27.4056 245.834C27.3517 245.878 27.2893 245.911 27.222 245.932C27.1546 245.952 27.0836 245.96 27.013 245.955Z" fill="white"/>
<path d="M24.8961 220.977H24.7381C19.7375 219.395 14.5716 218.33 9.33006 217.8C9.25985 217.795 9.19141 217.776 9.12879 217.746C9.06616 217.715 9.01063 217.673 8.96546 217.622C8.92029 217.571 8.88641 217.511 8.86582 217.447C8.84524 217.384 8.83836 217.316 8.84559 217.25C8.84781 217.181 8.86535 217.113 8.89707 217.051C8.92879 216.989 8.97397 216.934 9.02965 216.89C9.08533 216.846 9.15026 216.813 9.22018 216.794C9.2901 216.775 9.36343 216.771 9.43538 216.78C14.7648 217.299 20.0193 218.365 25.1067 219.958C25.2236 220.004 25.32 220.087 25.3795 220.193C25.439 220.299 25.4579 220.421 25.4331 220.539C25.4083 220.657 25.3412 220.763 25.2433 220.839C25.1454 220.915 25.0227 220.957 24.8961 220.957V220.977Z" fill="white"/>
<path d="M475.163 240.499L466.937 235.993C466.937 235.993 462.04 216.68 463.988 199.315C466.737 174.887 483.683 165.695 490.128 167.803C496.574 169.911 498.438 177.015 487.769 191.562C481.482 200.145 473.751 218.019 475.163 240.499Z" fill="#9FBB70"/>
<path d="M471.75 231.018H471.835C471.983 230.991 472.113 230.91 472.198 230.792C472.283 230.674 472.315 230.529 472.288 230.388C467.78 207.858 476.068 182.54 486.348 172.009C486.449 171.903 486.503 171.763 486.496 171.62C486.489 171.476 486.422 171.342 486.311 171.245C486.199 171.148 486.051 171.098 485.9 171.104C485.749 171.111 485.607 171.174 485.505 171.28C475.047 182.001 466.548 207.728 471.171 230.588C471.199 230.713 471.272 230.825 471.378 230.904C471.484 230.982 471.616 231.023 471.75 231.018Z" fill="white"/>
<path d="M495.879 251.84C497.101 252.439 500.376 249.782 501.282 249.142C502.842 248.017 504.071 246.531 504.852 244.826C505.733 242.894 505.954 240.749 505.484 238.691C505.233 237.605 504.902 236.537 504.494 235.494C504.125 234.495 503.757 233.436 503.378 232.397C502.938 231.401 502.716 230.33 502.725 229.25C502.904 227.092 504.831 225.493 506.59 224.104C508.538 222.566 510.539 220.577 510.392 217.99C510.136 215.987 509.188 214.121 507.696 212.684C506.316 211.186 504.694 209.867 503.42 208.278C502.425 207.157 501.868 205.746 501.84 204.282C501.918 203.387 502.187 202.517 502.63 201.724C503.653 200.068 504.533 198.338 505.263 196.548C505.821 194.71 505.61 192.462 504.052 191.233C503.36 190.797 502.584 190.496 501.769 190.345C500.954 190.194 500.115 190.197 499.302 190.354C497.763 190.61 496.3 191.179 495.015 192.022C490.803 194.51 488.591 199.496 484.094 201.474C482.3 202.097 480.468 202.614 478.607 203.023C477.674 203.235 476.799 203.629 476.036 204.179C475.272 204.73 474.638 205.425 474.173 206.22C472.656 209.497 475.995 213.294 474.994 216.741C474.099 219.738 471.087 221.087 469.507 223.874C468.861 225.111 468.651 226.512 468.907 227.871C469.179 230.16 469.893 232.382 471.013 234.425C472.27 236.524 473.66 238.549 475.173 240.49C475.173 240.49 495.689 251.77 495.879 251.84Z" fill="#00DE09"/>
<path d="M483.967 245.955C484.111 245.942 484.243 245.876 484.336 245.771C484.429 245.667 484.474 245.531 484.462 245.395C482.493 225.133 491.382 202.233 498.375 195.369C498.474 195.271 498.528 195.139 498.525 195.003C498.522 194.868 498.462 194.738 498.359 194.644C498.256 194.55 498.117 194.499 497.974 194.502C497.831 194.505 497.695 194.561 497.595 194.659C490.465 201.653 481.387 224.943 483.388 245.485C483.393 245.552 483.413 245.617 483.445 245.677C483.477 245.737 483.521 245.79 483.575 245.834C483.629 245.878 483.691 245.911 483.758 245.931C483.826 245.952 483.897 245.96 483.967 245.955Z" fill="white"/>
<path d="M486.137 220.977H486.295C491.279 219.398 496.427 218.333 501.65 217.8C501.721 217.795 501.789 217.776 501.852 217.746C501.914 217.715 501.97 217.673 502.015 217.622C502.06 217.571 502.094 217.511 502.115 217.447C502.135 217.384 502.142 217.316 502.135 217.25C502.133 217.181 502.115 217.113 502.083 217.051C502.052 216.989 502.006 216.934 501.951 216.89C501.895 216.846 501.83 216.813 501.76 216.794C501.69 216.775 501.617 216.771 501.545 216.78C496.216 217.299 490.961 218.365 485.874 219.958C485.757 220.004 485.66 220.087 485.601 220.193C485.541 220.299 485.522 220.421 485.547 220.539C485.572 220.657 485.639 220.763 485.737 220.839C485.835 220.915 485.958 220.957 486.084 220.957L486.137 220.977Z" fill="white"/>
<path d="M255.49 436.059C396.46 436.059 510.739 373.465 510.739 296.251C510.739 219.037 396.46 156.443 255.49 156.443C114.52 156.443 0.241089 219.037 0.241089 296.251C0.241089 373.465 114.52 436.059 255.49 436.059Z" fill="#F5F5F5"/>
<path d="M196.723 320.46L269.529 280.584L179.587 231.327L106.781 271.203L196.723 320.46Z" fill="#E0E0E0"/>
<path d="M301.051 407.354L368.802 370.246L301.051 333.139L233.31 370.246L301.051 407.354Z" fill="#E0E0E0"/>
<path d="M404.421 353.711C437.063 353.711 463.525 339.217 463.525 321.339C463.525 303.461 437.063 288.967 404.421 288.967C371.778 288.967 345.316 303.461 345.316 321.339C345.316 339.217 371.778 353.711 404.421 353.711Z" fill="#E0E0E0"/>
<path d="M97.0285 359.456C138.186 359.456 171.552 341.183 171.552 318.641C171.552 296.1 138.186 277.827 97.0285 277.827C55.8705 277.827 22.5054 296.1 22.5054 318.641C22.5054 341.183 55.8705 359.456 97.0285 359.456Z" fill="#E0E0E0"/>
<path d="M14.0378 36.2179C13.9121 36.2187 13.7885 36.1877 13.6797 36.128C13.5672 36.0687 13.4735 35.9818 13.4087 35.8763C13.3438 35.7708 13.3101 35.6507 13.3111 35.5285V12.6985C13.3101 12.5763 13.3438 12.4562 13.4087 12.3507C13.4735 12.2452 13.5672 12.1583 13.6797 12.099L34.3853 0.758887C34.4946 0.695286 34.6204 0.661621 34.7486 0.661621C34.8769 0.661621 35.0026 0.695286 35.112 0.758887C35.2218 0.820232 35.3128 0.907916 35.3756 1.01314C35.4385 1.11836 35.471 1.23742 35.4701 1.35836V24.1984C35.4703 24.3191 35.4362 24.4375 35.3713 24.5413C35.3064 24.6451 35.2132 24.7303 35.1014 24.7879L14.4064 36.128C14.2934 36.1868 14.1667 36.2177 14.0378 36.2179ZM14.7645 13.0881V34.3396L34.0167 23.7988V2.54733L14.7645 13.0881Z" fill="#E0E0E0"/>
<path d="M14.0378 75.0339C13.9105 75.0362 13.7855 75.0013 13.6798 74.934C13.568 74.8764 13.4748 74.7912 13.4099 74.6874C13.345 74.5836 13.3109 74.4652 13.3111 74.3445V51.5044C13.3101 51.3823 13.3438 51.2622 13.4087 51.1567C13.4736 51.0512 13.5672 50.9642 13.6798 50.905L34.3853 39.5649C34.4964 39.5063 34.6215 39.4755 34.7487 39.4755C34.8758 39.4755 35.0009 39.5063 35.112 39.5649C35.2219 39.6262 35.3128 39.7139 35.3757 39.8191C35.4385 39.9244 35.4711 40.0434 35.4701 40.1643V63.0044C35.47 63.1263 35.4358 63.246 35.3711 63.3514C35.3063 63.4567 35.2133 63.5438 35.1015 63.6039L14.4065 74.924C14.2975 74.994 14.1694 75.0322 14.0378 75.0339ZM14.7645 51.9441V73.1855L34.0167 62.6447V41.3533L14.7645 51.9441Z" fill="#E0E0E0"/>
<path d="M24.1378 64.3532L19.3248 59.957L20.9256 56.7198L23.6744 59.2176L35.5438 35.3984L37.6186 37.2868L24.1378 64.3532Z" fill="#5340FF"/>
<path d="M14.0378 113.89C13.9122 113.891 13.7885 113.86 13.6797 113.8C13.5686 113.739 13.4762 113.652 13.4115 113.547C13.3469 113.442 13.3123 113.322 13.3111 113.201V90.3105C13.3112 90.1886 13.3454 90.0689 13.4101 89.9636C13.4749 89.8582 13.5679 89.7711 13.6797 89.711L34.3853 78.3709C34.4948 78.3186 34.6164 78.2935 34.7389 78.2978C34.8614 78.3021 34.9807 78.3357 35.0859 78.3956C35.191 78.4554 35.2784 78.5395 35.3401 78.64C35.4017 78.7405 35.4356 78.8542 35.4385 78.9704V101.81C35.4395 101.933 35.4058 102.053 35.3409 102.158C35.2761 102.264 35.1824 102.351 35.0698 102.41L14.4064 113.75C14.2986 113.826 14.1715 113.875 14.0378 113.89ZM14.7645 90.7601V112.002L34.0167 101.461V80.1694L14.7645 90.7601Z" fill="#E0E0E0"/>
<path d="M183.063 104.288L124.896 267.706L120.736 269.984L178.913 106.567L183.063 104.288Z" fill="#455A64"/>
<path d="M120.736 269.984L118.682 268.865L176.849 105.438L178.913 106.567L120.736 269.984Z" fill="#263238"/>
<path d="M178.913 238.122L176.849 237.003L118.682 137.31L120.736 138.429L178.913 238.122Z" fill="#263238"/>
<path d="M124.896 136.151L183.063 235.844L178.913 238.122L120.736 138.429L124.896 136.151Z" fill="#455A64"/>
<path d="M197.628 175.996V180.552L259.956 146.412V141.866L197.628 175.996Z" fill="#455A64"/>
<path d="M197.628 175.996V180.552L118.682 137.31V132.754L197.628 175.996Z" fill="#37474F"/>
<path d="M259.956 146.412L201.788 309.839L197.628 312.107L255.806 148.69L259.956 146.412Z" fill="#455A64"/>
<path d="M197.628 312.107L195.575 310.988L253.742 147.561L255.806 148.69L197.628 312.107Z" fill="#263238"/>
<path d="M255.806 280.245L253.742 279.126L195.575 179.433L197.628 180.552L255.806 280.245Z" fill="#263238"/>
<path d="M201.788 178.274L259.956 277.967L255.806 280.245L197.628 180.552L201.788 178.274Z" fill="#455A64"/>
<path d="M181.009 16.6851L164.369 25.7971C150.474 33.4089 138.936 44.3572 130.916 57.5411C122.896 70.725 118.677 85.6798 118.682 100.902V132.784L122.831 135.062L185.159 100.902V18.9731L181.009 16.6851Z" fill="#DDC7C7"/>
<path d="M122.789 135.032V103.15C122.79 87.9319 127.013 72.9823 135.035 59.8038C143.056 46.6254 154.594 35.6825 168.487 28.0753L185.159 18.9733V100.902L122.789 135.032Z" fill="#FFCCBC"/>
<path d="M184.659 100.605L123.289 134.188V103.15C123.29 88.0249 127.487 73.1651 135.462 60.0638C143.437 46.9623 154.909 36.0801 168.727 28.5139L184.659 19.8159V100.605Z" stroke="black" stroke-opacity="0.14"/>
<path d="M193.479 169.172L122.831 130.476L185.159 96.3457L255.806 135.032L193.479 169.172Z" fill="#A97474"/>
<path d="M193.479 173.728V169.172L122.831 130.476V135.032L193.479 173.728Z" fill="#DDC7C7"/>
<path opacity="0.3" d="M146.275 132.344L175.364 148.28L212.763 127.798L183.674 111.862L146.275 132.344Z" fill="#5340FF"/>
<path d="M146.275 130.726L175.364 146.652L212.762 126.169L183.674 110.243L146.275 130.726Z" fill="#FAFAFA"/>
<path d="M196.133 130.965C196.091 130.974 196.048 130.974 196.006 130.965L191.857 128.687C191.817 128.667 191.784 128.636 191.762 128.599C191.739 128.562 191.727 128.52 191.727 128.477C191.727 128.435 191.739 128.393 191.762 128.356C191.784 128.319 191.817 128.288 191.857 128.268L196.006 125.99C196.045 125.97 196.089 125.959 196.133 125.959C196.177 125.959 196.22 125.97 196.259 125.99L200.472 128.268C200.511 128.288 200.544 128.319 200.567 128.356C200.59 128.393 200.602 128.435 200.602 128.477C200.602 128.52 200.59 128.562 200.567 128.599C200.544 128.636 200.511 128.667 200.472 128.687L196.259 130.965C196.218 130.975 196.174 130.975 196.133 130.965ZM192.489 128.448L196.133 130.446L199.777 128.448L196.133 126.449L192.489 128.448Z" fill="#5340FF"/>
<path d="M187.823 135.521H187.697L183.547 133.243C183.508 133.222 183.475 133.191 183.451 133.155C183.427 133.118 183.413 133.077 183.41 133.034C183.41 132.99 183.422 132.947 183.447 132.91C183.471 132.873 183.506 132.843 183.547 132.824L187.697 130.546C187.734 130.521 187.778 130.508 187.823 130.508C187.868 130.508 187.912 130.521 187.95 130.546L192.11 132.824C192.148 132.845 192.18 132.876 192.203 132.912C192.225 132.949 192.236 132.991 192.236 133.034C192.234 133.075 192.221 133.116 192.199 133.153C192.177 133.189 192.146 133.22 192.11 133.243L187.95 135.521C187.908 135.531 187.865 135.531 187.823 135.521ZM184.179 133.004L187.823 135.002L191.467 133.004L187.823 131.005L184.179 133.004Z" fill="#5340FF"/>
<path d="M179.514 140.067C179.472 140.076 179.429 140.076 179.387 140.067L175.175 137.789C175.136 137.768 175.104 137.737 175.081 137.7C175.059 137.664 175.048 137.622 175.048 137.579C175.051 137.537 175.063 137.497 175.085 137.46C175.107 137.424 175.138 137.393 175.175 137.369L179.387 135.091C179.426 135.071 179.47 135.061 179.514 135.061C179.558 135.061 179.601 135.071 179.64 135.091L183.853 137.369C183.89 137.393 183.92 137.424 183.942 137.46C183.964 137.497 183.977 137.537 183.979 137.579C183.98 137.622 183.968 137.664 183.946 137.7C183.924 137.737 183.892 137.768 183.853 137.789L179.64 140.067C179.599 140.077 179.555 140.077 179.514 140.067ZM175.87 137.549L179.514 139.548L183.158 137.549L179.514 135.551L175.87 137.549Z" fill="#5340FF"/>
<path d="M189.866 125.56C189.778 125.559 189.692 125.539 189.614 125.5L177.144 118.676C177.027 118.609 176.942 118.502 176.907 118.378C176.872 118.253 176.889 118.12 176.954 118.007C177.024 117.896 177.138 117.815 177.27 117.784C177.403 117.752 177.543 117.771 177.66 117.837L190.119 124.661C190.218 124.713 190.295 124.794 190.34 124.893C190.384 124.991 190.392 125.101 190.363 125.204C190.334 125.308 190.269 125.399 190.179 125.463C190.089 125.528 189.979 125.562 189.866 125.56Z" fill="#E0E0E0"/>
<path d="M181.588 130.076C181.5 130.072 181.413 130.048 181.336 130.006L168.876 123.182C168.77 123.113 168.695 123.008 168.666 122.889C168.637 122.77 168.656 122.645 168.72 122.538C168.783 122.432 168.886 122.351 169.009 122.313C169.131 122.276 169.265 122.282 169.382 122.333L181.852 129.167C181.909 129.199 181.96 129.241 182 129.292C182.04 129.342 182.069 129.4 182.086 129.461C182.103 129.523 182.106 129.586 182.097 129.649C182.087 129.712 182.065 129.772 182.031 129.826C181.988 129.903 181.924 129.966 181.846 130.01C181.768 130.054 181.679 130.077 181.588 130.076Z" fill="#E0E0E0"/>
<path d="M173.342 134.572C173.25 134.573 173.16 134.552 173.079 134.512L160.62 127.688C160.503 127.621 160.418 127.514 160.382 127.39C160.347 127.265 160.364 127.132 160.43 127.019C160.464 126.964 160.508 126.916 160.562 126.878C160.615 126.84 160.676 126.812 160.74 126.796C160.805 126.781 160.872 126.777 160.938 126.786C161.004 126.795 161.068 126.816 161.125 126.849L173.595 133.673C173.711 133.738 173.795 133.843 173.831 133.966C173.866 134.089 173.85 134.221 173.784 134.332C173.74 134.406 173.675 134.467 173.597 134.509C173.52 134.551 173.431 134.573 173.342 134.572Z" fill="#E0E0E0"/>
<path d="M185.159 18.9633L255.806 57.6495L251.646 59.9275L181.009 21.2313L185.159 18.9633Z" fill="#DDC7C7"/>
<path d="M181.009 21.2311V98.6235L251.646 137.31V59.9273L181.009 21.2311Z" fill="#FFCCBC"/>
<path d="M251.146 136.466L181.509 98.3273V22.0751L251.146 60.2235V136.466Z" stroke="black" stroke-opacity="0.19"/>
<path d="M255.398 57.1964L238.758 66.3085C224.865 73.9218 213.328 84.8704 205.308 98.054C197.289 111.238 193.068 126.192 193.071 141.413V173.295L197.221 175.563L259.548 141.413V59.4844L255.398 57.1964Z" fill="#A97474"/>
<path opacity="0.6" d="M255.398 57.1964L238.758 66.3085C224.865 73.9218 213.328 84.8704 205.308 98.054C197.289 111.238 193.068 126.192 193.071 141.413V173.295L197.221 175.563L259.548 141.413V59.4844L255.398 57.1964Z" fill="white"/>
<path d="M197.628 175.996V144.114C197.629 128.896 201.852 113.947 209.874 100.768C217.895 87.5896 229.433 76.6467 243.326 69.0396L259.956 59.9375V141.866L197.628 175.996Z" fill="#FFCCBC"/>
<path d="M224.864 109.694L222.978 114.29V116.887L222.694 117.047V114.42L220.798 111.902L221.156 111.712L222.525 113.58L222.841 114.05L223.136 113.251L224.516 109.874L224.864 109.694Z" fill="#455A64"/>
<path d="M227.307 114.62C225.906 115.379 225.201 114.62 225.201 112.621C225.125 111.782 225.279 110.938 225.648 110.171C226.017 109.404 226.589 108.741 227.307 108.245C228.708 107.486 229.413 108.355 229.413 110.244C229.5 111.084 229.35 111.932 228.98 112.7C228.611 113.469 228.033 114.131 227.307 114.62ZM227.307 108.625C226.673 109.068 226.17 109.658 225.846 110.339C225.521 111.019 225.386 111.767 225.453 112.512C225.453 114.03 225.98 115.029 227.307 114.29C227.937 113.862 228.439 113.286 228.764 112.619C229.089 111.952 229.225 111.216 229.161 110.483C229.161 108.975 228.655 107.896 227.307 108.615V108.625Z" fill="#455A64"/>
<path d="M234.132 104.628V107.985C234.132 109.904 233.521 111.212 232.215 111.932C230.909 112.651 230.288 112.012 230.288 110.093V106.726L230.561 106.576V109.974C230.561 111.502 231.025 112.252 232.215 111.602C232.793 111.226 233.252 110.707 233.541 110.101C233.831 109.495 233.94 108.826 233.858 108.165V104.778L234.132 104.628Z" fill="#455A64"/>
<path d="M238.997 108.135L238.681 108.315L238.092 107.016C237.828 106.417 237.428 106.287 236.733 106.667L235.438 107.376V110.044L235.164 110.194V104.019L237.154 102.93C237.997 102.47 238.639 102.67 238.639 103.849C238.641 104.273 238.549 104.693 238.367 105.08C238.185 105.468 237.919 105.814 237.586 106.097C237.965 106.097 238.207 106.347 238.365 106.687L238.997 108.135ZM237.175 103.28L235.427 104.279V107.006V107.066L237.112 106.147C237.495 105.93 237.813 105.623 238.035 105.255C238.256 104.888 238.374 104.472 238.376 104.049C238.376 103.03 237.849 102.9 237.175 103.28Z" fill="#455A64"/>
<path d="M212.285 139.937L208.575 127.832L211.606 126.207L213.197 132.039C213.83 134.333 214.086 135.29 214.096 135.341L214.148 135.342C214.15 135.271 214.446 134.027 215.163 131.07L217.02 123.323L219.902 121.766L215.678 138.143L212.285 139.937Z" fill="#FF4040"/>
<path d="M225.896 118.227C229.3 116.403 231.702 118.134 231.624 122.484C231.545 126.833 229.033 131.212 225.629 133.036C222.226 134.86 219.834 133.139 219.912 128.84C219.989 124.542 222.502 120.112 225.896 118.227ZM225.688 129.802C226.696 129.169 227.524 128.3 228.095 127.274C228.666 126.248 228.961 125.098 228.954 123.932C229 121.363 227.689 120.459 225.839 121.44C224.827 122.077 223.997 122.952 223.426 123.983C222.855 125.015 222.561 126.17 222.572 127.341C222.547 129.88 223.848 130.793 225.688 129.802Z" fill="#FF4040"/>
<path d="M237.965 115.609V126.409L235.332 127.858V117.047L231.962 118.896V115.798L241.325 110.663V113.77L237.965 115.609Z" fill="#FF4040"/>
<path d="M242.694 109.894L250.698 105.507V108.605L245.327 111.542V113.93L249.287 111.762V114.54L245.327 116.708V119.245L250.782 116.248V119.355L242.694 123.781V109.894Z" fill="#FF4040"/>
<path d="M219.366 146.828L219.1 146.967L219.2 141.441L218.84 142.704L217.131 148.11L215.575 144.438L215.254 143.562L215.154 149.109L214.878 149.247L214.992 142.923L215.247 142.794L216.914 146.724L217.155 147.353L217.414 146.456L219.267 140.633L219.512 140.494L219.366 146.828Z" fill="#455A64"/>
<path d="M224.483 144.072L224.174 144.241L223.641 142.87L220.875 144.357L220.292 146.322L219.983 146.491L222.225 139.026L222.469 138.887L224.483 144.072ZM223.551 142.561L222.546 139.871L222.429 139.388L222.27 140.01L221.147 143.88L221.146 143.942L223.551 142.561Z" fill="#455A64"/>
<path d="M228.058 136.211L226.271 137.204L226.163 143.15L225.887 143.299L225.994 137.342L224.207 138.335L224.213 138.007L228.064 135.874L228.058 136.211Z" fill="#455A64"/>
<path d="M232.121 134.03L230.334 135.022L230.226 140.969L229.95 141.117L230.058 135.12L228.281 136.112L228.287 135.775L232.095 133.723L232.121 134.03Z" fill="#455A64"/>
<path d="M236.002 137.876L232.683 139.661L232.797 133.336L236.116 131.551L236.11 131.889L233.036 133.535L232.99 136.114L232.989 136.165L235.765 134.668L235.759 135.005L232.983 136.502L232.936 139.092L232.935 139.143L236.009 137.487L236.002 137.876Z" fill="#455A64"/>
<path d="M240.82 135.279L240.501 135.457L239.936 134.117C239.683 133.498 239.286 133.358 238.584 133.734L237.275 134.438L237.226 137.171L236.95 137.32L237.064 130.995L239.074 129.914C239.925 129.458 240.563 129.674 240.542 130.882C240.536 131.316 240.435 131.745 240.247 132.138C240.058 132.532 239.785 132.882 239.447 133.166C239.826 133.173 240.074 133.433 240.215 133.784L240.82 135.279ZM239.088 130.283L237.323 131.225L237.272 134.019L237.271 134.08L238.973 133.168C239.36 132.953 239.684 132.644 239.912 132.271C240.14 131.898 240.265 131.475 240.275 131.041C240.293 130.038 239.758 129.916 239.088 130.283Z" fill="#455A64"/>
<path d="M243.042 134.161C242.774 134.35 242.456 134.461 242.126 134.481C241.795 134.5 241.465 134.428 241.176 134.271L241.404 133.866C241.65 134.016 241.936 134.093 242.226 134.087C242.516 134.081 242.798 133.993 243.037 133.833C243.467 133.638 243.837 133.338 244.112 132.963C244.386 132.587 244.556 132.149 244.603 131.69C244.614 131.117 244.282 130.814 243.564 130.945L242.665 131.103C241.778 131.241 241.307 131.079 241.322 130.261C241.374 129.718 241.57 129.197 241.89 128.749C242.209 128.301 242.643 127.94 243.148 127.703C243.382 127.534 243.662 127.436 243.953 127.423C244.244 127.41 244.533 127.482 244.782 127.629L244.564 128.025C244.36 127.88 244.115 127.801 243.863 127.796C243.61 127.792 243.363 127.863 243.153 128C242.742 128.183 242.384 128.464 242.115 128.817C241.845 129.17 241.671 129.584 241.61 130.02C241.598 130.696 242.082 130.735 242.853 130.605L243.677 130.466C244.607 130.318 244.937 130.734 244.924 131.44C244.895 132.017 244.704 132.576 244.373 133.055C244.041 133.535 243.581 133.917 243.042 134.161Z" fill="#455A64"/>
<path d="M245.011 98.4438L245.801 100.032L247.57 99.393L246.285 101.661L246.591 103.719L245.011 103.539L243.431 105.448L243.737 103.06L242.462 102.191L244.221 100.902L245.011 98.4438Z" fill="#FF4040"/>
<path d="M214.627 115.089L213.837 117.547L212.067 118.836L213.342 119.705L213.047 122.093L214.627 120.185L216.196 120.365L215.901 118.306L217.175 116.038L215.417 116.678L214.627 115.089Z" fill="#FF4040"/>
<path d="M345.453 284.032L305.021 400.79L301.04 402.978L341.472 286.21L345.453 284.032Z" fill="#455A64"/>
<path d="M301.04 402.977L299.071 401.898L339.492 285.14L341.472 286.209L301.04 402.977Z" fill="#263238"/>
<path d="M356.827 372.414L354.858 371.345L315.016 299.328L316.996 300.407L356.827 372.414Z" fill="#263238"/>
<path d="M320.977 298.219L360.819 370.236L356.838 372.414L316.996 300.397L320.977 298.219Z" fill="#455A64"/>
<path d="M289.676 253.478L249.245 370.236L245.264 372.414L285.695 255.656L289.676 253.478Z" fill="#455A64"/>
<path d="M245.264 372.414L243.294 371.345L283.726 254.577L285.695 255.656L245.264 372.414Z" fill="#263238"/>
<path d="M301.051 341.861L299.081 340.782L259.239 268.765L261.219 269.844L301.051 341.861Z" fill="#263238"/>
<path d="M265.2 267.656L305.042 339.673L301.051 341.861L261.219 269.844L265.2 267.656Z" fill="#455A64"/>
<path d="M297.07 313.496L233.31 278.576L301.051 241.469L364.821 276.388L297.07 313.496Z" fill="#455A64"/>
<path d="M297.07 317.862V313.496L364.821 276.388V280.754L297.07 317.862Z" fill="#37474F"/>
<path d="M297.07 317.862V313.496L233.31 278.576L233.331 282.922L297.07 317.862Z" fill="#263238"/>
<path d="M297.101 309.129V256.755L242.799 227.111V279.485L297.101 309.129Z" fill="#5340FF"/>
<path d="M297.101 256.755L355.342 224.833V277.218L297.101 309.13V256.755Z" fill="#1500D1"/>
<path opacity="0.15" d="M297.101 256.755L355.342 224.833V277.218L297.101 309.13V256.755Z" fill="white"/>
<path d="M297.101 256.755L241.272 226.272L301.04 193.51L356.859 223.994L297.101 256.755Z" fill="#1500D1"/>
<path opacity="0.3" d="M297.101 256.755L241.272 226.272L301.04 193.51L356.859 223.994L297.101 256.755Z" fill="white"/>
<path d="M297.101 256.755V266.107L241.272 235.634V226.272L297.101 256.755Z" fill="#5340FF"/>
<path d="M356.859 223.994L297.101 256.755V266.107L356.859 233.356V223.994Z" fill="#1500D1"/>
<path opacity="0.15" d="M356.859 223.994L297.101 256.755V266.107L356.859 233.356V223.994Z" fill="white"/>
<path opacity="0.1" d="M242.852 236.463V238.521L297.154 268.165V266.107L242.852 236.463ZM355.395 234.185L297.154 266.157V268.215L355.395 236.243V234.185Z" fill="black"/>
<path d="M281.125 230.558L289.097 234.924L316.996 219.638L309.023 215.281L281.125 230.558Z" fill="#1500D1"/>
<path opacity="0.2" d="M315.005 220.737L316.996 219.638L309.023 215.282L309.034 217.48L315.005 220.737Z" fill="black"/>
<path opacity="0.1" d="M283.126 231.647L309.023 217.46V215.281L281.125 230.558L283.126 231.647Z" fill="black"/>
<path d="M309.518 287.069L305.759 275.799L308.634 274.23L310.256 279.655C310.909 281.794 311.161 282.653 311.172 282.733H311.225C311.225 282.663 311.488 281.494 312.12 278.736L313.763 271.453L316.501 269.954L312.741 285.35L309.518 287.069Z" fill="#FAFAFA"/>
<path d="M322.199 266.527C325.421 264.768 327.749 266.347 327.749 270.423C327.749 274.5 325.421 278.626 322.199 280.414C318.976 282.203 316.638 280.594 316.638 276.528C316.638 272.461 318.976 268.295 322.199 266.527ZM322.199 277.367C323.152 276.755 323.927 275.926 324.454 274.955C324.98 273.984 325.24 272.903 325.211 271.812C325.211 269.414 323.947 268.585 322.199 269.534C321.243 270.148 320.466 270.981 319.94 271.955C319.413 272.93 319.154 274.015 319.187 275.109C319.187 277.487 320.45 278.326 322.199 277.367Z" fill="#FAFAFA"/>
<path d="M334.036 263.28V273.641L331.498 275.03V264.669L328.286 266.437V263.44L337.249 258.524V261.521L334.036 263.28Z" fill="#FAFAFA"/>
<path d="M338.565 257.834L346.243 253.628V256.625L341.093 259.443V261.731L344.884 259.653V262.32L341.093 264.399V266.836L346.359 263.969V266.966L338.607 271.213L338.565 257.834Z" fill="#FAFAFA"/>
<path d="M316.08 216.521L313.573 221.476L289.097 234.924L283.989 232.127L297.702 204.661L316.08 216.521Z" fill="#FAFAFA"/>
<path d="M441.903 296.141C442.388 298.399 443.283 301.007 444.01 305.613C444.736 310.219 443.609 310.408 447.106 321.958C449.212 328.882 448.823 331.64 443.946 337.485C438.68 343.749 433.214 342.48 429.634 335.546C426.579 329.622 426.758 326.864 426.748 320.719C426.737 314.575 426.674 312.786 426.348 307.911C426.063 303.614 426.474 300.677 426.169 297.39L441.903 296.141Z" fill="#0C0094"/>
<path d="M443.525 312.976C442.546 306.982 442.314 300.857 441.956 296.83C441.155 287.838 443.272 270.004 441.787 256.446L415.342 254.158C416.227 259.443 423.536 283.342 426.19 297.77C426.19 297.77 427.243 317.353 428.686 325.975C428.748 326.241 428.872 326.491 429.049 326.707C429.226 326.922 429.451 327.097 429.708 327.22C429.965 327.342 430.248 327.409 430.536 327.415C430.823 327.421 431.109 327.366 431.371 327.254C435.18 325.806 439.38 325.564 443.346 326.564C443.624 326.664 443.922 326.7 444.217 326.669C444.511 326.639 444.795 326.543 445.043 326.389C445.291 326.235 445.498 326.028 445.646 325.784C445.794 325.54 445.879 325.267 445.895 324.986C445.842 321.799 444.262 317.442 443.525 312.976Z" fill="#B16668"/>
<path d="M367.654 249.312C368.633 267.796 368.834 281.893 368.623 289.856C368.632 293.794 367.849 297.697 366.316 301.356C364.916 304.733 362.483 309.609 360.461 311.757C360.461 311.757 353.942 318.381 355.195 319.001C356.448 319.62 369.887 320.41 375.205 319.001C380.524 317.592 382.578 313.346 384.6 305.603C386.622 297.859 388.433 286.519 388.433 286.519C388.198 286.101 388.024 285.654 387.917 285.19C387.275 282.922 389.823 271.572 390.519 265.927L367.654 249.312Z" fill="#B16668"/>
<path d="M393.215 297.929C393.004 299.848 391.477 302.116 390.961 305.113C390.355 308.529 390.108 311.992 390.224 315.454C390.339 319.69 390.35 320.29 390.35 320.29H388.97C388.97 320.29 388.802 314.175 388.739 311.488C388.675 308.8 387.306 306.442 385.948 306.182C385.948 306.212 386.516 298.089 393.215 297.929Z" fill="#263238"/>
<path d="M388.254 285.47C389.055 287.638 391.119 290.466 392.309 292.564C393.013 293.769 393.447 295.099 393.583 296.471C393.572 297.201 393.402 297.921 393.085 298.586C392.768 299.251 392.31 299.847 391.74 300.337C390.634 301.336 389.834 302.166 388.507 303.335C385.737 305.753 384.579 307.881 382.735 313.486C381.682 316.823 379.881 319.85 376.764 321.479C374.331 322.738 367.654 324.876 359.45 324.546C352.636 324.276 349.971 321.459 352.614 319.031C355.258 316.603 359.671 312.297 360.461 311.787C362.938 311.796 365.39 312.254 367.685 313.136C371.456 314.775 372.614 316.903 376.659 315.134C380.324 313.496 382.262 307.511 382.577 297.989C382.925 287.548 388.254 285.47 388.254 285.47Z" fill="#0C0094"/>
<path d="M423.451 123.722C423.925 126.08 424.452 128.278 425.358 129.447C430.876 136.6 436.511 145.253 437.606 158.641C440.26 190.943 440.376 222.136 440.376 222.136C440.65 224.983 444.252 231.128 443.799 248.343C443.451 261.332 442.451 281.184 442.451 281.184C442.451 281.184 430.423 285.82 421.872 282.813C418.343 270.464 412.698 241.079 409.233 226.932C405.558 212.035 403.03 194.05 403.03 194.05L395.479 222.026C396.642 228.522 396.939 235.132 396.364 241.699C395.395 250.381 389.518 276.398 389.518 276.398C389.518 276.398 375.237 279.306 367.854 274.53C367.854 274.53 366.064 231.298 365.927 221.756C365.79 212.214 364.22 159.63 370.213 134.642C370.487 133.483 371.319 125.58 371.319 125.58C378.533 131.145 413.91 129.926 423.451 123.722Z" fill="#37474F"/>
<path d="M442.682 276.398C438.986 279.665 425.063 280.714 420.566 278.496L422.367 285.49C425.812 286.789 429.543 287.256 433.225 286.849C439.765 286.24 442.461 283.472 442.461 283.472L442.682 276.398Z" fill="#455A64"/>
<path d="M390.529 272.082C386.674 273.341 371.74 272.482 367.485 270.084L367.749 275.879C371.67 277.474 375.819 278.511 380.06 278.956C386.569 279.535 389.35 277.777 389.35 277.777L390.529 272.082Z" fill="#455A64"/>
<path d="M402.999 194.05L398.333 162.128C395.057 162.201 391.807 161.555 388.837 160.242C385.867 158.928 383.256 156.982 381.208 154.555C381.208 154.555 381.04 162.548 394.9 166.055L400.376 195.469L395.416 222.006L402.999 194.05Z" fill="#263238"/>
<path d="M339.903 102.7C335.995 99.9122 333.025 97.834 328.507 90.99C327.248 89.3701 325.776 87.9096 324.126 86.6438C322.557 85.228 321.269 83.5562 320.324 81.7081C319.913 80.7789 317.417 81.778 317.902 84.9952C318.27 87.3831 319.797 89.5612 320.408 90.92C319.081 90.92 316.954 90.7502 314.089 90.92C311.225 91.0899 305.485 90.8001 306.538 93.9174C306.77 94.6168 307.37 95.2063 307.391 95.9157C307.366 96.2535 307.306 96.5881 307.212 96.9148C307.085 97.5676 307.146 98.2407 307.389 98.8633C307.632 99.4858 308.047 100.035 308.592 100.452C308.863 100.606 309.096 100.814 309.276 101.061C309.571 101.601 309.35 102.26 309.476 102.83C309.639 103.481 309.984 104.079 310.477 104.558C311.182 105.277 311.414 105.028 312.12 105.747C312.583 106.217 312.678 107.256 313.763 107.945C314.574 108.455 316.522 108.515 318.597 108.485C320.672 108.455 321.851 109.104 324.611 109.024C326.78 108.964 328.823 110.123 332.436 113.64C340.524 120.954 341.556 123.342 348.813 128.927C349.453 129.429 350.121 129.9 350.814 130.336C357.68 134.822 360.398 131.335 365.821 122.273C372.488 111.132 375.943 104.818 375.943 104.818L386.643 74.5543C380.05 75.2637 372.299 82.3375 366.443 90.3605C363.694 94.1272 352.309 110.713 352.309 110.713C348.433 108.425 343.821 105.487 339.903 102.7Z" fill="#B16668"/>
<path d="M316.87 92.7684C317.159 92.8445 317.441 92.9448 317.712 93.0681C317.993 93.1974 318.249 93.3695 318.47 93.5777H318.386C319.705 93.3358 321.072 93.5371 322.251 94.1472C322.546 94.3184 322.81 94.5345 323.031 94.7866C323.279 95.0646 323.407 95.4217 323.389 95.7858C323.378 95.9784 323.312 96.1648 323.199 96.3253C323.056 96.4743 322.869 96.5788 322.662 96.625C322.325 96.695 322.02 96.7349 321.704 96.7949C321.082 96.9148 320.471 97.1146 319.829 97.2545C319.18 97.3952 318.513 97.4424 317.849 97.3944C316.548 97.3039 315.263 97.0589 314.026 96.665C314.657 96.8035 315.297 96.897 315.943 96.9447C316.585 97.0147 317.217 97.0846 317.86 97.0946C318.49 97.1023 319.119 97.0385 319.734 96.9048C320.356 96.7649 320.966 96.5551 321.609 96.4152C321.935 96.3453 322.272 96.2953 322.557 96.2254C322.841 96.1554 322.925 96.0555 322.967 95.7558C323.02 95.2562 322.546 94.7567 322.041 94.4769C320.94 93.8805 319.667 93.632 318.407 93.7675H318.355C318.168 93.5583 317.943 93.3824 317.691 93.248C317.432 93.0661 317.157 92.9056 316.87 92.7684Z" fill="#9A4A4D"/>
<path d="M321.377 96.6249C321.653 96.5379 321.952 96.5386 322.227 96.6269C322.503 96.7153 322.741 96.8864 322.904 97.1145C323.065 97.3615 323.144 97.648 323.133 97.9378C323.121 98.2277 323.02 98.5078 322.841 98.743C322.292 99.7178 321.433 100.504 320.387 100.991C319.829 101.155 319.244 101.222 318.66 101.191C318.098 101.191 317.54 101.171 316.986 101.131C315.869 101.061 314.763 100.991 313.647 100.871C314.763 100.821 315.88 100.811 316.996 100.801C318.082 100.888 319.175 100.821 320.24 100.601C320.724 100.397 321.166 100.113 321.546 99.7622C321.936 99.402 322.288 99.0072 322.599 98.5832C322.764 98.3948 322.867 98.1647 322.895 97.9213C322.923 97.6779 322.875 97.4321 322.757 97.2144C322.626 96.9869 322.42 96.8062 322.171 96.6998C321.922 96.5934 321.644 96.5671 321.377 96.6249Z" fill="#9A4A4D"/>
<path d="M320.893 100.502C321.133 100.4 321.393 100.348 321.656 100.348C321.919 100.348 322.18 100.4 322.42 100.502C322.547 100.564 322.657 100.652 322.745 100.759C322.832 100.866 322.894 100.989 322.925 101.121C322.973 101.379 322.973 101.643 322.925 101.901C322.743 102.379 322.435 102.805 322.03 103.14C321.682 103.533 321.242 103.844 320.745 104.049C320.228 104.143 319.701 104.17 319.176 104.129C318.682 104.158 318.19 104.211 317.702 104.289C316.712 104.438 315.711 104.598 314.711 104.728C315.68 104.428 316.648 104.189 317.638 103.979C318.14 103.861 318.651 103.784 319.166 103.749C319.649 103.774 320.134 103.741 320.608 103.649C321.043 103.476 321.432 103.213 321.746 102.88C322.106 102.588 322.397 102.227 322.599 101.821C322.642 101.606 322.642 101.386 322.599 101.171C322.585 101.068 322.546 100.97 322.486 100.883C322.426 100.797 322.346 100.724 322.251 100.672C321.838 100.452 321.352 100.391 320.893 100.502Z" fill="#9A4A4D"/>
<path d="M321.103 103.639C321.208 103.677 321.303 103.734 321.382 103.808C321.462 103.882 321.525 103.971 321.567 104.069C321.649 104.272 321.675 104.493 321.641 104.708C321.548 105.104 321.402 105.486 321.209 105.847C321.103 106.026 320.987 106.2 320.861 106.367C320.731 106.542 320.562 106.689 320.366 106.796C320.014 107.01 319.636 107.181 319.239 107.306L320.166 106.537C320.308 106.424 320.432 106.293 320.535 106.147C320.64 105.989 320.735 105.826 320.819 105.657C321.01 105.338 321.172 105.004 321.304 104.658C321.384 104.489 321.407 104.301 321.372 104.119C321.336 103.937 321.242 103.769 321.103 103.639Z" fill="#9A4A4D"/>
<path d="M323.178 95.7359C323.01 97.485 323.57 99.2271 324.74 100.589C325.909 101.95 327.594 102.823 329.434 103.02C328.085 103.06 326.746 102.782 325.537 102.21C324.536 101.768 323.659 101.107 322.978 100.282L322.778 101.081C322.515 100.662 322.388 100.302 321.188 100.412C321.727 99.9372 322.201 99.4001 322.599 98.8132C322.957 98.1538 323.473 97.1147 321.999 96.4952C322.306 96.4594 322.607 96.3855 322.894 96.2754C323.005 96.2369 323.096 96.1595 323.149 96.0592C323.202 95.9589 323.212 95.8433 323.178 95.7359Z" fill="#9A4A4D"/>
<path d="M387.538 73.6851C378.207 75.3037 374.9 75.3737 365.274 90.1608C359.344 99.2428 352.141 110.323 352.141 110.323L345.232 106.327C346.517 107.556 349.034 113.88 347.338 117.777C346.249 120.165 344.316 122.119 341.872 123.302C344.238 125.643 346.767 127.829 349.444 129.846C353.194 132.554 355.184 132.963 357.459 132.324C359.734 131.684 361.956 129.327 367.475 123.122C373.152 116.738 379.797 107.336 379.797 107.336L387.538 73.6851Z" fill="#5340FF"/>
<path opacity="0.55" d="M387.538 73.6851C378.207 75.3037 374.9 75.3737 365.274 90.1608C359.344 99.2428 352.141 110.323 352.141 110.323L345.232 106.327C346.517 107.556 349.034 113.88 347.338 117.777C346.249 120.165 344.316 122.119 341.872 123.302C344.238 125.643 346.767 127.829 349.444 129.846C353.194 132.554 355.184 132.963 357.459 132.324C359.734 131.684 361.956 129.327 367.475 123.122C373.152 116.738 379.797 107.336 379.797 107.336L387.538 73.6851Z" fill="white"/>
<path opacity="0.35" d="M352.141 110.323C355.816 112.451 359.344 116.967 359.966 119.635C359.954 117.392 359.341 115.188 358.186 113.231C357.031 111.274 355.372 109.627 353.362 108.445L352.141 110.323Z" fill="#5340FF"/>
<path opacity="0.35" d="M345.306 126.359C345.923 126.05 346.505 125.682 347.043 125.26C348.145 124.431 349.073 123.415 349.782 122.263C351.111 120.017 351.621 117.418 351.235 114.869C351.235 114.739 351.361 114.739 351.393 114.869C352.093 117.585 351.647 120.453 350.15 122.862C349.387 124.065 348.398 125.124 347.233 125.989C346.758 126.336 346.259 126.65 345.737 126.929L345.221 126.489L345.306 126.359Z" fill="#5340FF"/>
<path d="M408.001 70.0786L422.914 74.4748C425.474 75.3041 435.152 80.9092 431.772 94.7171C430.655 99.2931 429.128 105.708 427.748 112.112C426.695 117.008 430.56 126.429 433.678 141.436C433.678 141.436 420.892 151.088 395.479 148.37C376.09 146.292 368.802 138.379 368.802 138.379C368.612 124.061 371.814 114.999 373.246 109.544C373.246 109.544 371.077 106.976 370.95 101.151C370.835 95.0468 374.7 89.7015 380.429 82.7875C383.511 79.0029 387.046 75.5697 390.961 72.5565L408.001 70.0786Z" fill="#FAFAFA"/>
<path d="M374.763 52.8334C374.12 50.8352 371.698 50.6154 371.182 47.8378C370.666 45.0602 372.235 43.2618 374.573 42.0429C376.911 40.8239 377.406 38.6158 376.932 34.0498C376.458 29.4838 379.892 26.7362 383.862 26.1767C385.821 25.9069 388.075 26.0968 389.476 24.738C390.013 24.0877 390.456 23.3719 390.792 22.6098C392.688 19.2927 396.206 17.844 400.913 17.874C403.027 17.8491 405.125 18.2227 407.085 18.973C409.339 19.7884 411.372 21.072 413.035 22.7297C415.616 22.3401 420.471 22.8696 423.104 25.0677C424.251 25.8411 425.224 26.825 425.964 27.961C426.703 29.0971 427.196 30.3623 427.411 31.6819C427.854 34.3895 427.59 35.9282 428.823 37.3969C431.329 40.3943 434.457 40.3943 435.879 42.9121C437.901 46.509 432.92 49.5963 435.458 53.9025C435.985 54.7458 436.306 55.6909 436.396 56.6679C436.486 57.6448 436.343 58.6284 435.978 59.5458C435.613 60.4632 435.035 61.2909 434.287 61.9675C433.538 62.644 432.639 63.1522 431.656 63.4542C429.444 64.2535 427.548 63.1744 424.389 64.2934C421.229 65.4125 421.103 67.7005 417.08 69.2891C413.794 70.538 410.982 68.2899 408.317 67.9602C404.673 67.5606 405.842 68.6996 402.251 66.5115C401.019 65.7622 400.281 64.4233 399.039 63.684C395.1 61.4459 393.773 62.6848 389.033 64.2834C387.791 64.7131 383.662 65.8021 380.85 62.8447C379.169 60.9065 378.299 58.4487 378.407 55.9407C377.606 58.4385 371.561 58.3886 370.95 54.4221C371.22 54.8251 371.633 55.1231 372.115 55.2621C372.596 55.4012 373.114 55.372 373.575 55.18C374.036 54.988 374.409 54.6458 374.627 54.2153C374.845 53.7849 374.893 53.2947 374.763 52.8334Z" fill="#263238"/>
<path d="M413.699 67.0312C413.699 64.7532 414.183 58.9582 414.183 58.9582C415.068 61.0964 419.154 61.1763 421.155 58.5386C423.683 55.2015 423.673 51.235 421.956 48.8171C420.05 46.1394 415.521 46.0695 413.53 50.2159C410.539 50.7454 409.413 46.3992 411.866 42.4127C411.919 32.891 398.28 36.0982 395.532 27.5457C393.174 27.9573 390.947 28.8766 389.023 30.2329C387.098 31.5892 385.527 33.3462 384.431 35.3688C383.378 37.487 383.199 38.7858 383.452 43.0721C383.546 44.7406 382.335 46.6789 381.988 48.887C380.376 59.0082 383.515 63.0447 387.011 65.0129C388.875 66.0121 391.298 66.7414 395.753 67.0112C395.753 67.0112 395.668 68.9095 395.584 70.1684C395.5 71.4273 395.353 71.9769 393.752 72.1667C393.204 72.2366 392.593 72.2766 392.593 72.2766C392.593 72.2766 385.221 78.731 394.931 80.4195C409.423 82.9373 415.216 74.5546 415.858 72.4265C413.625 71.9869 413.594 70.8478 413.699 67.0312Z" fill="#B16668"/>
<path d="M400.071 55.9407L394.721 57.2995C394.792 57.6434 394.937 57.9698 395.146 58.2588C395.355 58.5478 395.624 58.7933 395.937 58.9804C396.249 59.1674 396.599 59.292 396.964 59.3466C397.329 59.4012 397.701 59.3845 398.059 59.2977C398.793 59.1017 399.415 58.6394 399.792 58.011C400.168 57.3826 400.269 56.6388 400.071 55.9407Z" fill="#9A4A4D"/>
<path d="M399.681 57.0599C398.979 57.0102 398.28 57.1931 397.704 57.5775C397.128 57.962 396.71 58.5241 396.522 59.168C397.022 59.3189 397.559 59.3189 398.059 59.168C398.568 59.0305 399.027 58.7615 399.384 58.391C399.741 58.0205 399.983 57.5631 400.081 57.0699C399.945 57.0998 399.776 57.0699 399.681 57.0599Z" fill="#F28F8F"/>
<path d="M386.137 40.6042L390.066 39.0556C389.97 38.8108 389.822 38.5871 389.632 38.398C389.442 38.209 389.214 38.0585 388.961 37.9557C388.707 37.853 388.435 37.8 388.16 37.8002C387.884 37.8003 387.612 37.8535 387.359 37.9565C386.84 38.1691 386.425 38.5606 386.198 39.052C385.971 39.5434 385.95 40.0982 386.137 40.6042Z" fill="#263238"/>
<path d="M405.253 41.843L401.44 39.9547C401.564 39.7169 401.737 39.505 401.948 39.3312C402.159 39.1574 402.405 39.0253 402.671 38.9425C402.936 38.8598 403.217 38.828 403.495 38.8491C403.774 38.8702 404.046 38.9438 404.294 39.0655C404.792 39.33 405.167 39.7624 405.344 40.2769C405.522 40.7914 405.489 41.3504 405.253 41.843Z" fill="#263238"/>
<path d="M395.732 66.991C402.504 66.6513 410.129 64.3833 412.583 60.8964C412.583 60.8964 411.593 64.4433 408.844 65.942C404.807 68.0386 400.271 69.1187 395.669 69.0792L395.732 66.991Z" fill="#9A4A4D"/>
<path d="M402.999 46.1794C403.001 46.5177 402.897 46.849 402.7 47.1313C402.504 47.4135 402.223 47.6341 401.894 47.7649C401.565 47.8958 401.203 47.931 400.853 47.8662C400.503 47.8014 400.181 47.6395 399.928 47.401C399.675 47.1624 399.503 46.858 399.432 46.5264C399.362 46.1947 399.397 45.8506 399.533 45.5379C399.669 45.2251 399.9 44.9577 400.196 44.7695C400.492 44.5813 400.841 44.4808 401.198 44.4808C401.674 44.4808 402.13 44.6595 402.467 44.9777C402.805 45.296 402.996 45.728 402.999 46.1794Z" fill="#263238"/>
<path d="M390.066 45.3902C390.066 45.7285 389.96 46.0592 389.761 46.3404C389.563 46.6216 389.281 46.8405 388.951 46.9696C388.622 47.0986 388.259 47.1318 387.909 47.0651C387.56 46.9983 387.239 46.8346 386.987 46.5947C386.736 46.3548 386.565 46.0494 386.497 45.7173C386.429 45.3852 386.466 45.0414 386.604 44.7294C386.742 44.4174 386.974 44.1513 387.272 43.9647C387.569 43.7782 387.919 43.6797 388.275 43.6817C388.511 43.6817 388.745 43.7259 388.963 43.8119C389.181 43.8979 389.379 44.0239 389.545 44.1827C389.711 44.3415 389.843 44.5299 389.932 44.7371C390.022 44.9443 390.067 45.1663 390.066 45.3902Z" fill="#263238"/>
<path d="M387.97 52.064L393.762 54.3919L395.289 43.4315L387.97 52.064Z" fill="#9A4A4D"/>
<path d="M418.817 57.5293C418.803 57.713 418.75 57.8922 418.663 58.0567C418.575 58.2211 418.455 58.3676 418.307 58.4877C418.16 58.6079 417.99 58.6993 417.805 58.7569C417.621 58.8145 417.426 58.837 417.232 58.8232C417.039 58.8094 416.85 58.7596 416.677 58.6766C416.503 58.5936 416.349 58.479 416.222 58.3393C416.096 58.1997 415.999 58.0378 415.938 57.8628C415.878 57.6878 415.854 57.5032 415.869 57.3195C415.898 56.9485 416.081 56.6038 416.379 56.3612C416.676 56.1185 417.063 55.9978 417.454 56.0257C417.845 56.0535 418.208 56.2275 418.464 56.5095C418.72 56.7915 418.847 57.1584 418.817 57.5293Z" fill="#EBEBEB"/>
<path d="M395.447 71.0277C394.752 71.2675 390.097 72.6663 387.538 73.6854C381.442 78.3568 376.344 84.0917 372.52 90.5806C369.845 95.4064 368.454 99.5728 368.307 107.446C368.191 114.29 367.317 134.622 365.885 145.932C366.664 148.58 374.458 151.727 374.458 151.727C374.858 141.556 375.047 109.684 377.364 98.8734C380.113 86.0446 392.225 74.3248 395.047 72.4864L395.447 71.0277Z" fill="#0C0094"/>
<path d="M413.71 70.2383V72.3365C407.011 88.862 408.328 96.4354 409.181 107.306C411.213 133.283 414.447 155.724 414.447 155.724C414.447 155.724 433.573 155.913 440.387 147.171C440.387 147.171 434.257 134.043 431.961 120.784C430.603 112.921 434.468 96.8051 433.014 85.425C432.425 80.6692 430.529 75.9233 426.769 74.8043C423.662 73.8751 420.966 73.1258 420.966 73.1258L413.71 70.2383Z" fill="#0C0094"/>
<path d="M437.49 161.179C440.524 161.998 444.389 158.421 445.452 157.182C446.516 155.944 445.147 152.986 444.505 150.498C443.862 148.01 444.505 143.804 441.261 144.983C438.017 146.162 431.182 154.475 437.49 161.179Z" fill="#9A4A4D"/>
<path d="M427.38 75.434C437.195 77.3723 438.154 77.0925 442.788 85.9348C448.191 96.2258 455.837 113.031 457.764 116.908C459.691 120.784 461.556 123.692 456.363 129.737C451.74 135.122 438.08 150.628 436.047 152.846C434.257 154.845 436.269 160.6 442.43 159.76C442.43 159.76 437.743 163.697 435.163 163.257C432.941 162.888 427.327 159.64 424.115 153.266C422.093 149.27 423.788 146.062 426.864 141.566C430.539 136.201 439.639 121.843 439.639 121.843L426.105 96.1958C426.105 96.1958 420.208 82.5278 427.38 75.434Z" fill="#B16668"/>
<path d="M426.79 74.8044C424.41 77.0525 420.629 85.4851 425.895 97.6745L439.154 121.883L433.246 130.875C433.246 130.875 437.459 136.081 441.008 138.459C441.973 139.149 443.08 139.64 444.257 139.9C445.434 140.16 446.656 140.183 447.843 139.968C447.843 139.968 455.436 131.975 458.122 128.468C460.808 124.961 461.282 123.952 457.859 116.078C454.552 108.485 444.041 85.3652 441.787 81.8283C439.533 78.2914 436.637 75.9235 426.79 74.8044Z" fill="#5340FF"/>
<path opacity="0.55" d="M426.79 74.8044C424.41 77.0525 420.629 85.4851 425.895 97.6745L439.154 121.883L433.246 130.875C433.246 130.875 437.459 136.081 441.008 138.459C441.973 139.149 443.08 139.64 444.257 139.9C445.434 140.16 446.656 140.183 447.843 139.968C447.843 139.968 455.436 131.975 458.122 128.468C460.808 124.961 461.282 123.952 457.859 116.078C454.552 108.485 444.041 85.3652 441.787 81.8283C439.533 78.2914 436.637 75.9235 426.79 74.8044Z" fill="white"/>
<path opacity="0.35" d="M441.903 131.704C440.91 130.981 439.976 130.186 439.112 129.327C438.262 128.494 437.484 127.599 436.785 126.649C436.669 126.489 436.532 126.259 436.427 126.089L435.974 126.769C436.057 126.878 436.134 126.992 436.206 127.108C436.91 128.052 437.684 128.947 438.523 129.786C439.377 130.642 440.303 131.43 441.292 132.144C442.322 132.958 443.467 133.631 444.694 134.142C445.031 134.262 445.052 133.823 444.842 133.673C443.831 132.973 442.809 132.394 441.903 131.704Z" fill="#5340FF"/>
<path d="M162.02 326.854C162.842 326.784 162.863 328.683 162.347 329.592C160.893 332.21 156.828 335.027 150.878 336.276C144.927 337.525 133.289 336.036 129.814 335.906C126.338 335.776 120.198 337.485 116.681 338.014C110.277 339.014 105.896 337.315 103.8 335.367C103.456 334.971 103.201 334.512 103.05 334.019C102.9 333.526 102.858 333.009 102.926 332.499C102.989 330.191 103.2 329.722 103.474 329.742L162.02 326.854Z" fill="#37474F"/>
<path d="M104.116 323.007C103.502 325.741 103.31 328.545 103.548 331.33C104.295 333.049 106.275 334.028 107.855 334.497C112.068 335.746 116.154 335.497 120.757 334.577C123.721 333.856 126.775 333.52 129.835 333.578C133.479 333.768 141.515 334.577 145.169 334.577C148.58 334.626 151.964 334.007 155.111 332.759C157.523 331.69 161.178 329.342 161.999 327.564C162.789 323.417 162.336 320.939 159.819 319.57C157.302 318.202 153.332 317.782 148.066 317.402C146.496 317.293 144.506 317.203 143.663 317.113C140.504 316.783 137.502 316.563 135.09 316.413C133.035 316.43 131.002 316.01 129.14 315.184C128.282 314.82 127.588 314.18 127.181 313.376C126.676 312.317 126.686 310.768 125.707 310.678C125.707 310.678 107.697 313.586 106.244 313.726C104.58 313.885 105.675 316.173 104.116 323.007Z" fill="black"/>
<path d="M145.085 316.963C145.63 317.368 146.081 317.875 146.412 318.452C146.776 319.081 147.052 319.753 147.234 320.45C147.476 321.319 146.338 321.449 145.896 320.45C145.567 319.616 145.135 318.821 144.611 318.082C144.235 317.565 143.68 317.19 143.042 317.023L142.136 316.933C142.378 316.313 144.379 316.523 145.085 316.963Z" fill="#FAFAFA"/>
<path d="M136.955 316.063C137.258 316.023 137.566 316.046 137.859 316.131C138.152 316.215 138.422 316.359 138.65 316.553C139.241 317.029 139.682 317.652 139.925 318.351C140.239 319.191 140.482 320.053 140.651 320.929C140.714 321.488 139.324 321.468 139.177 320.859C139.029 320.25 138.713 319.141 138.461 318.511C138.303 318.121 137.586 316.653 136.628 316.513H136.196C136.196 316.313 136.46 316.183 136.649 316.143C136.748 316.107 136.85 316.08 136.955 316.063Z" fill="#FAFAFA"/>
<path d="M132.184 315.924C132.594 315.998 132.965 316.202 133.237 316.503C133.562 316.915 133.814 317.374 133.985 317.862C134.272 318.756 134.414 319.685 134.406 320.62C134.406 321.339 133.037 321.149 132.995 320.62C132.847 319.101 132.847 318.102 132.078 316.993C131.791 316.51 131.382 316.101 130.888 315.804C130.888 315.674 131.131 315.654 131.267 315.684C131.577 315.748 131.883 315.828 132.184 315.924Z" fill="#FAFAFA"/>
<path d="M104.222 295.322C104.222 295.322 105.78 311.038 106.17 314.665C106.296 315.824 108.613 316.293 109.804 316.783C111.29 317.309 112.674 318.066 113.9 319.021C116.923 321.869 119.166 322.538 121.03 317.542C121.091 317.301 121.206 317.075 121.366 316.879C121.526 316.682 121.728 316.521 121.96 316.404C122.191 316.288 122.445 316.22 122.706 316.204C122.967 316.189 123.229 316.226 123.474 316.313C124.489 316.643 125.562 316.785 126.633 316.733C126.791 316.633 126.697 316.403 126.633 316.254C126.164 315.699 125.827 315.055 125.645 314.365C125.463 313.675 125.441 312.956 125.58 312.257C126.096 305.823 126.381 299.378 126.77 292.934L104.222 295.322Z" fill="#FFBDA7"/>
<path d="M46.2125 283.792C48.3188 280.545 49.0245 274.51 50.5621 263.3L70.0354 272.821L61.7048 292.224C61.3611 293.066 61.0967 293.936 60.9149 294.822C58.5452 298.009 46.2125 283.792 46.2125 283.792Z" fill="#FFBDA7"/>
<path d="M39.7459 290.736C39.7459 290.546 39.6617 289.007 39.7459 288.828C40.1988 287.179 41.2731 286.719 42.6527 285.83C44.0362 284.945 45.3053 283.909 46.4336 282.743C46.897 282.133 46.9813 281.824 47.6975 281.544C48.9192 281.074 50.857 281.034 53.3004 282.243C57.2709 284.242 58.482 286.6 58.2503 289.177C58.0818 291.176 57.9028 293.753 59.7353 294.922C60.4936 295.412 61.6942 292.265 61.6942 292.265C62.8211 294.063 61.2414 296.541 60.4094 300.168C59.9331 302.174 59.8972 304.252 60.304 306.272C60.7042 309.46 61.1677 309.44 62.9475 309.669C64.4852 309.859 68.8453 309.579 71.4888 311.338C75.1434 313.756 74.1639 316.973 74.1639 316.973C73.69 318.202 69.7195 324.137 55.2066 321.919C50.9939 321.279 42.1472 315.005 42.2841 314.415C42.3577 313.814 42.3577 313.208 42.2841 312.607C42.2841 311.208 42.1683 309.799 42.1051 308.391C42.1515 307.054 42.0669 305.716 41.8523 304.394C41.588 303.302 41.4085 302.194 41.3152 301.077C41.0414 298.249 40.757 295.422 40.4832 292.594C40.3778 291.735 39.588 291.525 39.7459 290.736Z" fill="black"/>
<path d="M37.9134 290.166C36.481 291.475 37.3552 295.292 39.272 299.868C40.125 301.866 41.7048 305.383 41.2414 309.1C40.778 312.816 40.6938 314.565 41.7048 316.313C43.2846 319.031 51.7206 322.518 56.6916 323.607C53.6839 319.612 51.9311 314.89 51.6363 309.989C51.1308 301.786 50.4778 296.501 46.5284 292.874C41.5258 288.268 37.9134 290.166 37.9134 290.166Z" fill="white"/>
<path d="M74.1639 316.933C74.1639 316.933 71.2571 322.108 60.0302 321.928C55.6069 321.858 53.2477 319.82 53.1319 313.446C53.0055 305.762 52.3525 298.009 49.7406 294.203C47.1287 290.396 42.9476 288.537 39.7143 288.807C38.9571 289.027 38.3143 289.508 37.9134 290.156C37.9134 290.156 41.1467 289.157 46.1914 293.153C49.9091 296.081 50.9097 302.196 50.857 309.789C50.857 313.056 50.6253 316.783 51.6364 319.241C52.1008 320.33 52.8274 321.301 53.7583 322.077C54.6891 322.852 55.7982 323.411 56.997 323.707C63.095 325.325 71.4467 322.648 73.5636 320.2C73.9184 319.734 74.1568 319.198 74.2608 318.632C74.3648 318.066 74.3317 317.485 74.1639 316.933Z" fill="#37474F"/>
<path d="M60.6516 308.231C61.1063 308.535 61.4283 308.986 61.5573 309.499C61.6047 310.155 61.4654 310.811 61.1542 311.398C60.8429 311.985 60.371 312.482 59.788 312.836C59.1139 313.236 58.5242 313.096 59.5984 311.747C60.2892 310.692 60.6541 309.473 60.6516 308.231Z" fill="#FAFAFA"/>
<path d="M60.0723 304.254C60.0723 304.254 60.4304 304.474 60.5252 305.543C60.5252 306.112 59.63 308.42 58.4188 308.97C57.2077 309.519 57.8817 308.22 58.4188 307.591C59.2301 306.612 59.7956 305.471 60.0723 304.254Z" fill="#FAFAFA"/>
<path d="M60.4725 299.868C60.4725 299.868 60.8622 299.968 60.4725 301.436C59.9128 302.344 59.0489 303.047 58.0186 303.435C57.2603 303.515 56.8917 303.155 57.829 302.515C58.5452 302.046 60.3356 300.577 60.4725 299.868Z" fill="#FAFAFA"/>
<path d="M67.7395 280.245C67.7395 280.245 71.3098 272.302 84.0217 245.335C87.8658 237.172 88.8663 231.118 89.8352 227.111C90.8884 222.945 95.1854 202.413 95.1854 202.413L100.725 236.563C99.6502 240.995 98.9911 245.509 98.7557 250.051C98.7557 255.686 99.5034 264.249 101.188 275.869C103.758 293.623 104.453 302.845 104.453 302.845C105.77 303.744 109.951 305.493 117.092 305.113C120.356 304.795 123.539 303.954 126.507 302.625C126.507 302.625 128.129 284.151 128.803 271.273C129.424 259.383 130.456 245.945 130.983 238.771C132.036 225.303 132.31 219.498 132.457 198.266C132.605 176.286 130.836 143.874 130.836 143.874L65.0012 142.435C65.0012 142.435 60.6726 151.607 61.9996 170.571C61.4836 189.084 58.5873 224.324 58.5873 224.324C54.9643 232.659 52.6199 241.444 51.6258 250.411C50.6569 259.163 49.1929 270.693 49.1929 270.693C56.2071 270.453 63.8743 274.75 67.7395 280.245Z" fill="#FF0D0D"/>
<path opacity="0.2" d="M95.238 202.593L91.6046 178.124C91.6046 178.124 83.0633 177.495 72.8053 169.392C72.8053 169.392 74.1534 176.645 88.7083 181.601L92.5103 207.069L89.751 227.791C89.751 227.791 95.1748 203.062 95.238 202.593Z" fill="black"/>
<path d="M146.591 119.795L148.877 120.164L150.235 121.973C150.035 122.379 149.931 122.823 149.931 123.272C149.931 123.721 150.035 124.164 150.235 124.571C150.941 125.899 151.962 125.48 151.962 125.48L153.016 123.072L153.437 119.725L150.562 117.317L147.739 116.787L146.591 119.795Z" fill="#B16668"/>
<path d="M154.89 118.696C155.191 119.64 155.227 120.642 154.996 121.604C154.744 122.473 154.42 123.321 154.027 124.141C153.732 124.731 152.573 124.731 151.857 123.252C151.267 122.033 152.099 119.315 152.099 119.315L154.89 118.696Z" fill="#F0997A"/>
<path d="M159.198 115.339C159.514 116.878 160.483 119.765 160.662 120.884C160.841 122.003 159.377 121.883 159.377 121.883L155.922 117.167L159.198 115.339Z" fill="#F0997A"/>
<path d="M146.244 103.899C147.792 103.299 147.76 103.279 149.888 104.349C152.776 105.88 155.533 107.624 158.134 109.564C159.566 110.783 159.187 113.151 159.187 115.189C159.187 117.227 159.577 119.425 159.187 119.995C159.135 120.076 159.065 120.147 158.983 120.202C158.901 120.258 158.808 120.297 158.71 120.318C158.612 120.338 158.51 120.34 158.411 120.322C158.312 120.304 158.218 120.268 158.134 120.215L146.244 103.899Z" fill="#FFBDA7"/>
<path d="M159.735 122.333L161.588 128.467C161.599 128.507 161.596 128.548 161.58 128.586C161.565 128.624 161.537 128.657 161.502 128.68C161.466 128.702 161.424 128.714 161.382 128.714C161.339 128.714 161.297 128.701 161.262 128.677L155.838 124.881L159.735 122.333Z" fill="#FFA8A7"/>
<path d="M161.294 128.687L155.838 124.88L157.944 123.542L158.418 124.191L161.441 128.497L161.294 128.687Z" fill="#F28F8F"/>
<path d="M161.262 128.677C161.297 128.701 161.339 128.713 161.381 128.714C161.424 128.714 161.466 128.702 161.502 128.679C161.537 128.657 161.565 128.624 161.58 128.586C161.596 128.548 161.598 128.507 161.588 128.467L161.22 127.268C161.123 127.452 160.972 127.606 160.785 127.71C160.598 127.815 160.383 127.866 160.167 127.858H160.051L161.262 128.677Z" fill="#263238"/>
<path d="M137.091 99.2429L137.449 99.7225L137.871 100.312L155.838 124.881C156.579 125.021 157.348 124.897 157.997 124.531C158.447 124.325 158.838 124.022 159.141 123.645C159.443 123.268 159.646 122.829 159.735 122.363L141.746 97.8042L140.925 96.6852C141.441 97.4445 137.586 99.9923 137.091 99.2429Z" fill="#455A64"/>
<path d="M137.091 99.2427L137.45 99.7223L137.871 100.312L155.838 124.88C156.289 124.963 156.753 124.951 157.199 124.846C157.645 124.74 158.061 124.544 158.418 124.271L139.714 98.4035C139.788 98.3535 139.788 98.3136 139.714 98.2936C138.703 99.0429 137.365 99.6624 137.091 99.2427Z" fill="#37474F"/>
<path d="M138.429 101.091L139.229 102.17C139.451 102.49 140.283 102.23 141.167 101.761C142.315 101.151 143.379 100.032 143.084 99.6026L142.505 98.8033L142.294 98.5236C142.579 98.9532 141.515 100.072 140.367 100.682C139.535 101.131 138.713 101.391 138.461 101.121L138.429 101.091Z" fill="#EBEBEB"/>
<path d="M138.587 101.361C139.103 102.11 142.958 99.5324 142.452 98.793L141.746 97.704C142.252 98.4533 138.397 101.021 137.881 100.272L138.587 101.361Z" fill="#37474F"/>
<path d="M137.091 99.2426L137.871 100.312C138.366 101.051 142.084 98.6032 141.778 97.8039L140.978 96.7249C141.441 97.4442 137.586 99.992 137.091 99.2426Z" fill="#EBEBEB"/>
<path d="M161.493 128.687C161.464 128.701 161.431 128.709 161.398 128.709C161.365 128.709 161.333 128.701 161.304 128.687C161.333 128.701 161.365 128.709 161.398 128.709C161.431 128.709 161.464 128.701 161.493 128.687Z" fill="#FFA8A7"/>
<path d="M135.427 97.0249L137.081 99.243C137.292 99.5627 138.134 99.303 138.998 98.8434C140.146 98.2339 141.23 97.1149 140.946 96.6852L139.282 94.4572C138.619 93.548 136.523 94.607 135.638 95.7461C135.472 95.9145 135.362 96.1266 135.325 96.3547C135.287 96.5828 135.323 96.8164 135.427 97.0249Z" fill="#F28F8F"/>
<path opacity="0.1" d="M137.028 97.1843C137.561 97.0201 138.047 96.7406 138.447 96.3678C138.848 95.995 139.151 95.5392 139.334 95.0362C139.37 94.9147 139.375 94.7866 139.347 94.663C139.32 94.5395 139.261 94.4241 139.176 94.3268C138.407 93.6674 136.48 94.6665 135.648 95.7456C135.485 95.9119 135.378 96.1198 135.338 96.3436C135.299 96.5673 135.33 96.7972 135.427 97.0045C135.68 97.3442 136.28 97.4341 137.028 97.1843Z" fill="black"/>
<path d="M146.654 112.322C148.266 113.89 150.067 114.32 153.174 115.129C154.642 115.679 156.033 116.401 157.313 117.277C158.545 118.067 159.124 119.526 156.765 120.565C155.185 121.264 153.184 120.395 151.499 120.085C150.656 119.933 149.798 119.866 148.94 119.885C146.496 120.025 146.075 120.764 143.316 121.354C140.557 121.943 138.355 121.294 136.818 121.544C135.28 121.794 99.3877 131.995 99.3877 131.995L99.0085 113.011C99.0085 113.011 129.014 110.873 133.848 110.084C137.766 109.434 142.4 106.397 142.4 106.397L146.654 112.322Z" fill="#FFBDA7"/>
<path d="M136.87 109.224C135.882 109.625 134.851 109.923 133.795 110.113C128.961 110.903 98.9558 113.041 98.9558 113.041L99.335 132.024C99.335 132.024 135.227 121.833 136.765 121.573C137.115 121.539 137.468 121.539 137.818 121.573L136.87 109.224Z" fill="#F0997A"/>
<path d="M154.711 110.103C154.468 110.422 154.114 110.65 153.712 110.747C153.31 110.844 152.884 110.803 152.51 110.633C151.878 110.313 149.782 108.744 149.782 108.744L155.048 115.908C154.877 115.279 154.903 114.616 155.122 114C155.278 113.78 155.478 113.591 155.711 113.446C155.945 113.3 156.206 113.2 156.481 113.151C155.891 113.063 155.287 113.184 154.785 113.49C154.404 113.295 154.079 113.017 153.835 112.678C153.591 112.339 153.437 111.949 153.384 111.542C154.732 110.653 154.711 110.103 154.711 110.103Z" fill="#F0997A"/>
<path d="M64.0297 65.0189C59.6695 72.922 59.996 81.8742 61.2598 92.9945C62.4183 103.206 63.2293 109.54 64.2193 122.179C65.4094 136.576 63.303 145.688 63.303 145.688C63.303 145.688 72.1392 157.328 91.1175 161.914C124.461 169.967 131.497 159.546 131.497 159.546C131.497 159.546 131.202 148.556 131.244 140.013C131.244 132.31 131.096 123.188 130.822 115.605C130.18 98.1899 129.969 83.7226 127.842 77.518C126.273 74.081 124.63 72.7222 120.617 70.9937C117.31 69.5649 111.002 66.6674 106.294 64.939C97.6392 61.9693 88.8302 59.4215 79.9012 57.3056C76.7465 56.9434 73.5497 57.4843 70.7216 58.8588C67.8934 60.2332 65.563 62.3784 64.0297 65.0189Z" fill="black"/>
<path d="M109.224 56.7699L106.823 64.4032C101.157 64.573 88.2976 62.4049 85.6225 59.9571L88.0975 50.9449L109.224 56.7699Z" fill="#FFBDA7"/>
<path d="M128.118 35.0488C128.118 35.0488 130.298 37.2969 130.994 43.9111L126.781 45.9093C126.37 41.2434 125.949 36.5175 128.118 35.0488Z" fill="#F0997A"/>
<path d="M121.873 15.7956C128.782 17.4641 131.352 24.0584 127.413 37.6965C127.897 52.5535 122.294 57.4192 120.04 58.9479C115.217 60.4066 110.688 59.947 104.927 57.4392C100.536 55.441 89.4771 50.1556 85.97 42.4523C81.7573 33.3503 82.6736 20.7712 89.6983 17.2643C99.4929 12.2787 118.218 14.9164 121.873 15.7956Z" fill="#FFBDA7"/>
<path d="M121.346 49.2464C121.427 49.2815 121.499 49.3326 121.557 49.3962C121.557 49.3962 121.557 49.5061 121.641 49.5561C121.705 49.6727 121.776 49.7861 121.852 49.8958C122.02 50.1313 122.218 50.3461 122.442 50.5352C122.86 50.8717 123.329 51.1477 123.832 51.3545C123.85 51.3622 123.866 51.3747 123.877 51.3907C123.889 51.4066 123.895 51.4253 123.895 51.4445C123.908 51.4657 123.915 51.4898 123.915 51.5144C123.915 51.5389 123.908 51.5631 123.895 51.5843C123.79 51.6643 123.6 51.5843 123.474 51.5843C123.329 51.5476 123.187 51.4974 123.053 51.4345C122.76 51.3023 122.484 51.138 122.231 50.9449C121.985 50.7597 121.765 50.5447 121.578 50.3054C121.484 50.1884 121.4 50.0649 121.325 49.9358L121.22 49.7559C121.177 49.6429 121.177 49.5193 121.22 49.4062C121.22 49.4062 121.262 49.2064 121.346 49.2464Z" fill="#F0997A"/>
<path d="M119.988 58.938C118.713 59.7872 112.121 60.5666 108.403 59.4975L109.266 56.7599C112.719 57.9469 116.326 58.6798 119.988 58.938Z" fill="#F0997A"/>
<path d="M120.399 25.6371C120.24 26.7632 119.709 27.8125 118.882 28.6345C117.718 29.7726 116.165 30.4809 114.501 30.6328C115.143 32.5704 115.291 34.625 114.933 36.6275C114.866 37.2641 114.598 37.8667 114.164 38.356C114.019 38.5376 113.823 38.677 113.598 38.7582C113.374 38.8395 113.13 38.8594 112.894 38.8157C112.658 38.772 112.44 38.6664 112.264 38.511C112.088 38.3556 111.962 38.1565 111.899 37.9364C111.598 36.786 111.156 35.6728 110.583 34.6193C109.819 33.3613 108.593 32.415 107.139 31.9616C101.631 30.4629 99.9985 38.7457 101.705 41.9529C104.496 47.1883 108.087 44.7704 108.087 44.7704C108.087 44.7704 108.603 52.1839 102.6 54.3121C102.6 54.3121 93.2476 55.6309 87.8553 51.7343C83.6425 45.5198 79.7247 38.5359 78.9138 32.9308C77.1444 20.7314 81.0201 13.8075 86.6968 12.8083C88.266 8.50209 93.1528 6.50383 97.6499 5.81444C103.758 4.81531 108.993 7.55292 114.869 8.53206C117.881 9.03681 120.974 8.88649 123.916 8.09245C125.222 7.74275 126.812 7.32312 127.771 8.20235C128.136 8.56922 128.375 9.03265 128.455 9.53119C128.648 10.4113 128.619 11.322 128.372 12.1898C128.125 13.0575 127.667 13.8581 127.034 14.5268C128.771 13.7575 131.404 14.6867 132.742 16.1054C134.648 18.1037 134.617 20.1719 133.3 22.7796C132.479 24.3283 127.792 29.1041 120.399 25.6371Z" fill="#263238"/>
<path d="M86.7916 13.9774L81.9996 10.1607C82.5454 9.56091 83.3194 9.19057 84.1522 9.13066C84.9851 9.07074 85.8091 9.32613 86.444 9.84097C86.7576 10.0881 87.0158 10.3922 87.2036 10.7355C87.3913 11.0787 87.5047 11.4542 87.5371 11.8396C87.5695 12.2251 87.5202 12.6129 87.3922 12.98C87.2641 13.3472 87.0599 13.6863 86.7916 13.9774Z" fill="#263238"/>
<path d="M182.21 151.078C180.967 149.899 179.724 148.85 178.692 147.92C177.839 147.151 176.733 146.092 174.838 144.114C174.037 143.264 173.152 143.684 171.488 143.164C169.824 142.645 170.319 141.396 169.277 140.926C168.055 140.367 167.634 140.717 166.454 140.197C165.001 139.568 164.253 138.089 162.473 138.718C159.261 139.847 158.26 141.256 153.805 137.37C142.831 127.748 136.07 121.603 136.07 121.603C136.07 121.603 133.964 95.2563 133.1 89.1816C131.889 80.9388 132.163 75.1938 120.799 71.6769C120.799 71.6769 111.689 75.6734 112.373 91.3097C112.995 104.828 114.659 118.146 115.533 124.661C116.239 130.156 117.271 130.845 124.527 135.601C142.347 147.291 145.096 149.159 147.339 150.528C150.351 152.366 153.458 154.525 156.818 154.734C159.903 154.884 164.327 152.966 166.486 151.847C169.951 150.058 172.805 149.129 173.911 149.389C175.017 149.649 177.07 151.727 179.177 152.267C181.283 152.806 182.821 151.647 182.21 151.078Z" fill="#FFBDA7"/>
<path d="M121.146 70.458C126.412 72.726 128.519 73.915 131.278 78.1813C133.1 80.9988 133.384 84.0561 134.174 91.5296C134.838 98.0639 135.754 110.513 135.754 110.513C135.754 110.513 134.574 113.51 126.918 115.878C122.496 117.317 117.686 117.264 113.3 115.728C113.3 115.728 111.794 102.69 111.278 97.2946C110.572 89.981 109.993 75.9232 121.146 70.458Z" fill="#FF0D0D"/>
</svg>
